{
    "asset" : {
        "generator" : "Khronos glTF Blender I/O v1.6.16",
        "version" : "2.0"
    },
    "scene" : 0,
    "scenes" : [
        {
            "name" : "Scene",
            "nodes" : [
                0
            ]
        }
    ],
    "nodes" : [
        {
            "mesh" : 0,
            "name" : "Mball.001",
            "rotation" : [
                0.7071068286895752,
                0,
                0,
                0.7071068286895752
            ],
            "scale" : [
                0.12879376113414764,
                0.12879376113414764,
                0.12879376113414764
            ],
            "translation" : [
                0.4217439889907837,
                0.17562775313854218,
                0.0008297115564346313
            ]
        }
    ],
    "materials" : [
        {
            "doubleSided" : true,
            "name" : "Chrome Gold tint",
            "pbrMetallicRoughness" : {
                "baseColorFactor" : [
                    0.8000000715255737,
                    0.5655518174171448,
                    0.45138078927993774,
                    1
                ],
                "metallicFactor" : 0.5,
                "roughnessFactor" : 0.20000000298023224
            }
        }
    ],
    "meshes" : [
        {
            "name" : "Mesh",
            "primitives" : [
                {
                    "attributes" : {
                        "POSITION" : 0,
                        "NORMAL" : 1
                    },
                    "indices" : 2,
                    "material" : 0
                }
            ]
        }
    ],
    "accessors" : [
        {
            "bufferView" : 0,
            "componentType" : 5126,
            "count" : 9984,
            "max" : [
                1.149358868598938,
                1.149358868598938,
                1.149358868598938
            ],
            "min" : [
                -1.149358868598938,
                -1.149358868598938,
                -1.149358868598938
            ],
            "type" : "VEC3"
        },
        {
            "bufferView" : 1,
            "componentType" : 5126,
            "count" : 9984,
            "type" : "VEC3"
        },
        {
            "bufferView" : 2,
            "componentType" : 5123,
            "count" : 59892,
            "type" : "SCALAR"
        }
    ],
    "bufferViews" : [
        {
            "buffer" : 0,
            "byteLength" : 119808,
            "byteOffset" : 0
        },
        {
            "buffer" : 0,
            "byteLength" : 119808,
            "byteOffset" : 119808
        },
        {
            "buffer" : 0,
            "byteLength" : 119784,
            "byteOffset" : 239616
        }
    ],
    "buffers" : [
        {
            "byteLength" : 359400,
            "uri" : "Mutiara.bin"
        }
    ]
}
