{
    "asset" : {
        "generator" : "Khronos glTF Blender I/O v1.6.16",
        "version" : "2.0"
    },
    "scene" : 0,
    "scenes" : [
        {
            "name" : "Scene",
            "nodes" : [
                0
            ]
        }
    ],
    "nodes" : [
        {
            "mesh" : 0,
            "name" : "Cube",
            "scale" : [
                -0.5054362416267395,
                -0.5054362416267395,
                -0.3166446387767792
            ]
        }
    ],
    "materials" : [
        {
            "doubleSided" : true,
            "name" : "Wood texture",
            "normalTexture" : {
                "index" : 0
            },
            "pbrMetallicRoughness" : {
                "baseColorTexture" : {
                    "index" : 1
                },
                "metallicFactor" : 0,
                "roughnessFactor" : 0.44999998807907104
            }
        }
    ],
    "meshes" : [
        {
            "name" : "Cube.005",
            "primitives" : [
                {
                    "attributes" : {
                        "POSITION" : 0,
                        "NORMAL" : 1,
                        "TEXCOORD_0" : 2
                    },
                    "indices" : 3,
                    "material" : 0
                }
            ]
        }
    ],
    "textures" : [
        {
            "sampler" : 0,
            "source" : 0
        },
        {
            "sampler" : 0,
            "source" : 1
        }
    ],
    "images" : [
        {
            "mimeType" : "image/png",
            "name" : "Kursi Kayu Norm",
            "uri" : "textures/Kursi%20Kayu%20Norm.png"
        },
        {
            "mimeType" : "image/png",
            "name" : "Kursi Kayu  Diff",
            "uri" : "textures/Kursi%20Kayu%20%20Diff.png"
        }
    ],
    "accessors" : [
        {
            "bufferView" : 0,
            "componentType" : 5126,
            "count" : 11008,
            "max" : [
                1.2216405868530273,
                0.7828624248504639,
                1.8165258169174194
            ],
            "min" : [
                -1.1303644180297852,
                -1.6632598638534546,
                -0.9999999403953552
            ],
            "type" : "VEC3"
        },
        {
            "bufferView" : 1,
            "componentType" : 5126,
            "count" : 11008,
            "type" : "VEC3"
        },
        {
            "bufferView" : 2,
            "componentType" : 5126,
            "count" : 11008,
            "type" : "VEC2"
        },
        {
            "bufferView" : 3,
            "componentType" : 5123,
            "count" : 17988,
            "type" : "SCALAR"
        }
    ],
    "bufferViews" : [
        {
            "buffer" : 0,
            "byteLength" : 132096,
            "byteOffset" : 0
        },
        {
            "buffer" : 0,
            "byteLength" : 132096,
            "byteOffset" : 132096
        },
        {
            "buffer" : 0,
            "byteLength" : 88064,
            "byteOffset" : 264192
        },
        {
            "buffer" : 0,
            "byteLength" : 35976,
            "byteOffset" : 352256
        }
    ],
    "samplers" : [
        {
            "magFilter" : 9729,
            "minFilter" : 9987
        }
    ],
    "buffers" : [
        {
            "byteLength" : 388232,
            "uri" : "chair.bin"
        }
    ]
}
