{
    "asset" : {
        "generator" : "Khronos glTF Blender I/O v1.6.16",
        "version" : "2.0"
    },
    "scene" : 0,
    "scenes" : [
        {
            "name" : "Scene",
            "nodes" : [
                0,
                1,
                2,
                3,
                4
            ]
        }
    ],
    "nodes" : [
        {
            "mesh" : 0,
            "name" : "Plane",
            "rotation" : [
                0.7071068286895752,
                0,
                0,
                0.7071068286895752
            ],
            "scale" : [
                21.172504425048828,
                1,
                -9.86835765838623
            ],
            "translation" : [
                0.13186144828796387,
                10.325851440429688,
                -15.601412773132324
            ]
        },
        {
            "mesh" : 1,
            "name" : "Circle.006",
            "scale" : [
                22.534412384033203,
                12.032320022583008,
                22.534412384033203
            ],
            "translation" : [
                0.23165392875671387,
                0,
                0.7999972701072693
            ]
        },
        {
            "mesh" : 2,
            "name" : "Cube.003",
            "scale" : [
                1.8947560787200928,
                0.33344340324401855,
                50.79635238647461
            ],
            "translation" : [
                0.24761462211608887,
                1.6491838693618774,
                -46.79924011230469
            ]
        },
        {
            "mesh" : 3,
            "name" : "Plane.003",
            "scale" : [
                26.29722023010254,
                26.29722023010254,
                -47.2042121887207
            ],
            "translation" : [
                0.24761462211608887,
                1.840807557106018,
                -55.13880920410156
            ]
        },
        {
            "mesh" : 4,
            "name" : "Cylinder",
            "scale" : [
                8.792080879211426,
                0.27609217166900635,
                8.792080879211426
            ],
            "translation" : [
                0.23165392875671387,
                1.9464527368545532,
                -76.87507629394531
            ]
        }
    ],
    "materials" : [
        {
            "doubleSided" : true,
            "name" : "Procedual Marble Granite Black Galaxy",
            "pbrMetallicRoughness" : {
                "baseColorTexture" : {
                    "index" : 0
                },
                "metallicRoughnessTexture" : {
                    "index" : 1
                }
            }
        },
        {
            "doubleSided" : true,
            "name" : "Procedual Marble Granite Black Galaxy.002",
            "pbrMetallicRoughness" : {
                "baseColorTexture" : {
                    "index" : 2
                },
                "metallicRoughnessTexture" : {
                    "index" : 3
                }
            }
        },
        {
            "doubleSided" : true,
            "name" : "Dark procedural tiles.003",
            "normalTexture" : {
                "index" : 4,
                "scale" : 0.20000000298023224
            },
            "pbrMetallicRoughness" : {
                "baseColorTexture" : {
                    "index" : 5
                },
                "metallicFactor" : 0.290909081697464,
                "roughnessFactor" : 0.8339483737945557
            }
        },
        {
            "doubleSided" : true,
            "name" : "Touched Plastic Smooth",
            "normalTexture" : {
                "index" : 6,
                "scale" : 3.3999998569488525
            },
            "pbrMetallicRoughness" : {
                "baseColorFactor" : [
                    0.013410553336143494,
                    0.013410553336143494,
                    0.013410553336143494,
                    1
                ],
                "metallicRoughnessTexture" : {
                    "index" : 7
                }
            }
        }
    ],
    "meshes" : [
        {
            "name" : "Plane.003",
            "primitives" : [
                {
                    "attributes" : {
                        "POSITION" : 0,
                        "NORMAL" : 1,
                        "TEXCOORD_0" : 2
                    },
                    "indices" : 3,
                    "material" : 0
                }
            ]
        },
        {
            "name" : "Circle.003",
            "primitives" : [
                {
                    "attributes" : {
                        "POSITION" : 4,
                        "NORMAL" : 5,
                        "TEXCOORD_0" : 6
                    },
                    "indices" : 7,
                    "material" : 1
                }
            ]
        },
        {
            "name" : "Cube.003",
            "primitives" : [
                {
                    "attributes" : {
                        "POSITION" : 8,
                        "NORMAL" : 9,
                        "TEXCOORD_0" : 10
                    },
                    "indices" : 11,
                    "material" : 2
                }
            ]
        },
        {
            "name" : "Plane.004",
            "primitives" : [
                {
                    "attributes" : {
                        "POSITION" : 12,
                        "NORMAL" : 13,
                        "TEXCOORD_0" : 14,
                        "TEXCOORD_1" : 15
                    },
                    "indices" : 16,
                    "material" : 0
                }
            ]
        },
        {
            "name" : "Cylinder",
            "primitives" : [
                {
                    "attributes" : {
                        "POSITION" : 17,
                        "NORMAL" : 18,
                        "TEXCOORD_0" : 19
                    },
                    "indices" : 20,
                    "material" : 3
                }
            ]
        }
    ],
    "textures" : [
        {
            "sampler" : 0,
            "source" : 0
        },
        {
            "sampler" : 0,
            "source" : 1
        },
        {
            "sampler" : 0,
            "source" : 2
        },
        {
            "sampler" : 0,
            "source" : 3
        },
        {
            "sampler" : 0,
            "source" : 4
        },
        {
            "sampler" : 0,
            "source" : 5
        },
        {
            "sampler" : 0,
            "source" : 6
        },
        {
            "sampler" : 0,
            "source" : 7
        }
    ],
    "images" : [
        {
            "mimeType" : "image/png",
            "name" : "Floor_Marble_Diff",
            "uri" : "textures/Floor_Marble_Diff.png"
        },
        {
            "mimeType" : "image/png",
            "name" : "Floor_Marble_Emitt-Floor_MArblew_Rough",
            "uri" : "textures/Floor_Marble_Emitt-Floor_MArblew_Rough.png"
        },
        {
            "mimeType" : "image/png",
            "name" : "Wall_Marble_Diff",
            "uri" : "textures/Wall_Marble_Diff.png"
        },
        {
            "mimeType" : "image/png",
            "name" : "Wall_Marble_Metallic-Wall_Marble_Roughness",
            "uri" : "textures/Wall_Marble_Metallic-Wall_Marble_Roughness.png"
        },
        {
            "mimeType" : "image/png",
            "name" : "Runaway_Normal_Map",
            "uri" : "textures/Runaway_Normal_Map.png"
        },
        {
            "mimeType" : "image/png",
            "name" : "Runaway_Floor",
            "uri" : "textures/Runaway_Floor.png"
        },
        {
            "mimeType" : "image/png",
            "name" : "Level Normal",
            "uri" : "textures/Level%20Normal.png"
        },
        {
            "mimeType" : "image/png",
            "name" : "Level Rough",
            "uri" : "textures/Level%20Rough.png"
        }
    ],
    "accessors" : [
        {
            "bufferView" : 0,
            "componentType" : 5126,
            "count" : 193,
            "max" : [
                1,
                0.5608908534049988,
                1
            ],
            "min" : [
                -1,
                0,
                -1
            ],
            "type" : "VEC3"
        },
        {
            "bufferView" : 1,
            "componentType" : 5126,
            "count" : 193,
            "type" : "VEC3"
        },
        {
            "bufferView" : 2,
            "componentType" : 5126,
            "count" : 193,
            "type" : "VEC2"
        },
        {
            "bufferView" : 3,
            "componentType" : 5123,
            "count" : 252,
            "type" : "SCALAR"
        },
        {
            "bufferView" : 4,
            "componentType" : 5126,
            "count" : 6641,
            "max" : [
                1.3010283708572388,
                1.6643213033676147,
                -0.6002733707427979
            ],
            "min" : [
                -1.278435468673706,
                -0.35889387130737305,
                -4.068994045257568
            ],
            "type" : "VEC3"
        },
        {
            "bufferView" : 5,
            "componentType" : 5126,
            "count" : 6641,
            "type" : "VEC3"
        },
        {
            "bufferView" : 6,
            "componentType" : 5126,
            "count" : 6641,
            "type" : "VEC2"
        },
        {
            "bufferView" : 7,
            "componentType" : 5123,
            "count" : 30720,
            "type" : "SCALAR"
        },
        {
            "bufferView" : 8,
            "componentType" : 5126,
            "count" : 2264,
            "max" : [
                1.0000001192092896,
                1.291183352470398,
                0.7721530199050903
            ],
            "min" : [
                -1.0000001192092896,
                -1.4693478345870972,
                -0.8369870781898499
            ],
            "type" : "VEC3"
        },
        {
            "bufferView" : 9,
            "componentType" : 5126,
            "count" : 2264,
            "type" : "VEC3"
        },
        {
            "bufferView" : 10,
            "componentType" : 5126,
            "count" : 2264,
            "type" : "VEC2"
        },
        {
            "bufferView" : 11,
            "componentType" : 5123,
            "count" : 2304,
            "type" : "SCALAR"
        },
        {
            "bufferView" : 12,
            "componentType" : 5126,
            "count" : 24,
            "max" : [
                1,
                0,
                1
            ],
            "min" : [
                -1,
                -0.036740660667419434,
                -1.0110852718353271
            ],
            "type" : "VEC3"
        },
        {
            "bufferView" : 13,
            "componentType" : 5126,
            "count" : 24,
            "type" : "VEC3"
        },
        {
            "bufferView" : 14,
            "componentType" : 5126,
            "count" : 24,
            "type" : "VEC2"
        },
        {
            "bufferView" : 15,
            "componentType" : 5126,
            "count" : 24,
            "type" : "VEC2"
        },
        {
            "bufferView" : 16,
            "componentType" : 5123,
            "count" : 36,
            "type" : "SCALAR"
        },
        {
            "bufferView" : 17,
            "componentType" : 5126,
            "count" : 272,
            "max" : [
                1,
                1,
                1
            ],
            "min" : [
                -1,
                -1,
                -1.7241003513336182
            ],
            "type" : "VEC3"
        },
        {
            "bufferView" : 18,
            "componentType" : 5126,
            "count" : 272,
            "type" : "VEC3"
        },
        {
            "bufferView" : 19,
            "componentType" : 5126,
            "count" : 272,
            "type" : "VEC2"
        },
        {
            "bufferView" : 20,
            "componentType" : 5123,
            "count" : 372,
            "type" : "SCALAR"
        }
    ],
    "bufferViews" : [
        {
            "buffer" : 0,
            "byteLength" : 2316,
            "byteOffset" : 0
        },
        {
            "buffer" : 0,
            "byteLength" : 2316,
            "byteOffset" : 2316
        },
        {
            "buffer" : 0,
            "byteLength" : 1544,
            "byteOffset" : 4632
        },
        {
            "buffer" : 0,
            "byteLength" : 504,
            "byteOffset" : 6176
        },
        {
            "buffer" : 0,
            "byteLength" : 79692,
            "byteOffset" : 6680
        },
        {
            "buffer" : 0,
            "byteLength" : 79692,
            "byteOffset" : 86372
        },
        {
            "buffer" : 0,
            "byteLength" : 53128,
            "byteOffset" : 166064
        },
        {
            "buffer" : 0,
            "byteLength" : 61440,
            "byteOffset" : 219192
        },
        {
            "buffer" : 0,
            "byteLength" : 27168,
            "byteOffset" : 280632
        },
        {
            "buffer" : 0,
            "byteLength" : 27168,
            "byteOffset" : 307800
        },
        {
            "buffer" : 0,
            "byteLength" : 18112,
            "byteOffset" : 334968
        },
        {
            "buffer" : 0,
            "byteLength" : 4608,
            "byteOffset" : 353080
        },
        {
            "buffer" : 0,
            "byteLength" : 288,
            "byteOffset" : 357688
        },
        {
            "buffer" : 0,
            "byteLength" : 288,
            "byteOffset" : 357976
        },
        {
            "buffer" : 0,
            "byteLength" : 192,
            "byteOffset" : 358264
        },
        {
            "buffer" : 0,
            "byteLength" : 192,
            "byteOffset" : 358456
        },
        {
            "buffer" : 0,
            "byteLength" : 72,
            "byteOffset" : 358648
        },
        {
            "buffer" : 0,
            "byteLength" : 3264,
            "byteOffset" : 358720
        },
        {
            "buffer" : 0,
            "byteLength" : 3264,
            "byteOffset" : 361984
        },
        {
            "buffer" : 0,
            "byteLength" : 2176,
            "byteOffset" : 365248
        },
        {
            "buffer" : 0,
            "byteLength" : 744,
            "byteOffset" : 367424
        }
    ],
    "samplers" : [
        {
            "magFilter" : 9729,
            "minFilter" : 9987
        }
    ],
    "buffers" : [
        {
            "byteLength" : 368168,
            "uri" : "phase2.bin"
        }
    ]
}
