{
    "asset" : {
        "generator" : "Khronos glTF Blender I/O v1.6.16",
        "version" : "2.0"
    },
    "scene" : 0,
    "scenes" : [
        {
            "name" : "Scene",
            "nodes" : [
                0
            ]
        }
    ],
    "nodes" : [
        {
            "mesh" : 0,
            "name" : "Cylinder",
            "rotation" : [
                0.7071068286895752,
                0,
                0,
                0.7071068286895752
            ],
            "scale" : [
                0.8332592844963074,
                -0.09815429151058197,
                1.1231545209884644
            ]
        }
    ],
    "materials" : [
        {
            "doubleSided" : true,
            "name" : "Material.001",
            "pbrMetallicRoughness" : {
                "baseColorFactor" : [
                    0.800000011920929,
                    0.800000011920929,
                    0.800000011920929,
                    1
                ],
                "metallicFactor" : 0,
                "roughnessFactor" : 0.5
            }
        },
        {
            "doubleSided" : true,
            "name" : "Material.002",
            "pbrMetallicRoughness" : {
                "baseColorFactor" : [
                    0.800000011920929,
                    0.800000011920929,
                    0.800000011920929,
                    1
                ],
                "metallicFactor" : 0,
                "roughnessFactor" : 0.5
            }
        }
    ],
    "meshes" : [
        {
            "name" : "Cylinder",
            "primitives" : [
                {
                    "attributes" : {
                        "POSITION" : 0,
                        "NORMAL" : 1,
                        "TEXCOORD_0" : 2
                    },
                    "indices" : 3,
                    "material" : 0
                },
                {
                    "attributes" : {
                        "POSITION" : 4,
                        "NORMAL" : 5,
                        "TEXCOORD_0" : 6
                    },
                    "indices" : 7,
                    "material" : 1
                }
            ]
        }
    ],
    "accessors" : [
        {
            "bufferView" : 0,
            "componentType" : 5126,
            "count" : 3432,
            "max" : [
                0.9935951828956604,
                0.9140088558197021,
                0.9935951828956604
            ],
            "min" : [
                -0.9935951828956604,
                -1.145150065422058,
                -0.9935952425003052
            ],
            "type" : "VEC3"
        },
        {
            "bufferView" : 1,
            "componentType" : 5126,
            "count" : 3432,
            "type" : "VEC3"
        },
        {
            "bufferView" : 2,
            "componentType" : 5126,
            "count" : 3432,
            "type" : "VEC2"
        },
        {
            "bufferView" : 3,
            "componentType" : 5123,
            "count" : 18432,
            "type" : "SCALAR"
        },
        {
            "bufferView" : 4,
            "componentType" : 5126,
            "count" : 172032,
            "max" : [
                0.5321414470672607,
                0.8385867476463318,
                0.824432909488678
            ],
            "min" : [
                -0.5321415662765503,
                -0.8385851979255676,
                -0.7576234936714172
            ],
            "type" : "VEC3"
        },
        {
            "bufferView" : 5,
            "componentType" : 5126,
            "count" : 172032,
            "type" : "VEC3"
        },
        {
            "bufferView" : 6,
            "componentType" : 5126,
            "count" : 172032,
            "type" : "VEC2"
        },
        {
            "bufferView" : 7,
            "componentType" : 5125,
            "count" : 258048,
            "type" : "SCALAR"
        }
    ],
    "bufferViews" : [
        {
            "buffer" : 0,
            "byteLength" : 41184,
            "byteOffset" : 0
        },
        {
            "buffer" : 0,
            "byteLength" : 41184,
            "byteOffset" : 41184
        },
        {
            "buffer" : 0,
            "byteLength" : 27456,
            "byteOffset" : 82368
        },
        {
            "buffer" : 0,
            "byteLength" : 36864,
            "byteOffset" : 109824
        },
        {
            "buffer" : 0,
            "byteLength" : 2064384,
            "byteOffset" : 146688
        },
        {
            "buffer" : 0,
            "byteLength" : 2064384,
            "byteOffset" : 2211072
        },
        {
            "buffer" : 0,
            "byteLength" : 1376256,
            "byteOffset" : 4275456
        },
        {
            "buffer" : 0,
            "byteLength" : 1032192,
            "byteOffset" : 5651712
        }
    ],
    "buffers" : [
        {
            "byteLength" : 6683904,
            "uri" : "Logo.bin"
        }
    ]
}
