{
    "asset" : {
        "generator" : "Khronos glTF Blender I/O v1.6.16",
        "version" : "2.0"
    },
    "scene" : 0,
    "scenes" : [
        {
            "name" : "Scene",
            "nodes" : [
                0,
                1
            ]
        }
    ],
    "nodes" : [
        {
            "mesh" : 0,
            "name" : "Cube.003",
            "scale" : [
                1.5390318632125854,
                0.33344340324401855,
                30.26503562927246
            ],
            "translation" : [
                0.015964612364768982,
                1.8151216506958008,
                -107.43892669677734
            ]
        },
        {
            "mesh" : 1,
            "name" : "Cube",
            "scale" : [
                7.193115711212158,
                0.09457086771726608,
                24.544496536254883
            ],
            "translation" : [
                0,
                1.9440977573394775,
                -107.98554992675781
            ]
        }
    ],
    "materials" : [
        {
            "doubleSided" : true,
            "name" : "Dark procedural tiles.003",
            "normalTexture" : {
                "index" : 0,
                "scale" : 0.20000000298023224
            },
            "pbrMetallicRoughness" : {
                "baseColorTexture" : {
                    "index" : 1
                },
                "metallicFactor" : 0.290909081697464,
                "roughnessFactor" : 0.8339483737945557
            }
        },
        {
            "doubleSided" : true,
            "name" : "Ceramic Black Tiles English.001",
            "normalTexture" : {
                "index" : 2
            },
            "pbrMetallicRoughness" : {
                "baseColorTexture" : {
                    "index" : 3
                },
                "metallicFactor" : 0,
                "metallicRoughnessTexture" : {
                    "index" : 4
                }
            }
        }
    ],
    "meshes" : [
        {
            "name" : "Cube.016",
            "primitives" : [
                {
                    "attributes" : {
                        "POSITION" : 0,
                        "NORMAL" : 1,
                        "TEXCOORD_0" : 2
                    },
                    "indices" : 3,
                    "material" : 0
                }
            ]
        },
        {
            "name" : "Cube.006",
            "primitives" : [
                {
                    "attributes" : {
                        "POSITION" : 4,
                        "NORMAL" : 5,
                        "TEXCOORD_0" : 6
                    },
                    "indices" : 7,
                    "material" : 1
                }
            ]
        }
    ],
    "textures" : [
        {
            "sampler" : 0,
            "source" : 0
        },
        {
            "sampler" : 0,
            "source" : 1
        },
        {
            "sampler" : 0,
            "source" : 2
        },
        {
            "sampler" : 0,
            "source" : 3
        },
        {
            "sampler" : 0,
            "source" : 4
        }
    ],
    "images" : [
        {
            "mimeType" : "image/png",
            "name" : "Runaway_Normal_Map",
            "uri" : "textures/Runaway_Normal_Map.png"
        },
        {
            "mimeType" : "image/png",
            "name" : "Runaway_Floor",
            "uri" : "textures/Runaway_Floor.png"
        },
        {
            "mimeType" : "image/png",
            "name" : "Floor Normal",
            "uri" : "textures/Floor%20Normal.png"
        },
        {
            "mimeType" : "image/png",
            "name" : "Floor Diff",
            "uri" : "textures/Floor%20Diff.png"
        },
        {
            "mimeType" : "image/png",
            "name" : "Floor Rough",
            "uri" : "textures/Floor%20Rough.png"
        }
    ],
    "accessors" : [
        {
            "bufferView" : 0,
            "componentType" : 5126,
            "count" : 2241,
            "max" : [
                1.0000001192092896,
                1.0000001192092896,
                0.7845274806022644
            ],
            "min" : [
                -1.0000001192092896,
                -1.0000001192092896,
                -1.0000001192092896
            ],
            "type" : "VEC3"
        },
        {
            "bufferView" : 1,
            "componentType" : 5126,
            "count" : 2241,
            "type" : "VEC3"
        },
        {
            "bufferView" : 2,
            "componentType" : 5126,
            "count" : 2241,
            "type" : "VEC2"
        },
        {
            "bufferView" : 3,
            "componentType" : 5123,
            "count" : 2304,
            "type" : "SCALAR"
        },
        {
            "bufferView" : 4,
            "componentType" : 5126,
            "count" : 24,
            "max" : [
                1,
                1,
                1
            ],
            "min" : [
                -1,
                -1,
                -1
            ],
            "type" : "VEC3"
        },
        {
            "bufferView" : 5,
            "componentType" : 5126,
            "count" : 24,
            "type" : "VEC3"
        },
        {
            "bufferView" : 6,
            "componentType" : 5126,
            "count" : 24,
            "type" : "VEC2"
        },
        {
            "bufferView" : 7,
            "componentType" : 5123,
            "count" : 36,
            "type" : "SCALAR"
        }
    ],
    "bufferViews" : [
        {
            "buffer" : 0,
            "byteLength" : 26892,
            "byteOffset" : 0
        },
        {
            "buffer" : 0,
            "byteLength" : 26892,
            "byteOffset" : 26892
        },
        {
            "buffer" : 0,
            "byteLength" : 17928,
            "byteOffset" : 53784
        },
        {
            "buffer" : 0,
            "byteLength" : 4608,
            "byteOffset" : 71712
        },
        {
            "buffer" : 0,
            "byteLength" : 288,
            "byteOffset" : 76320
        },
        {
            "buffer" : 0,
            "byteLength" : 288,
            "byteOffset" : 76608
        },
        {
            "buffer" : 0,
            "byteLength" : 192,
            "byteOffset" : 76896
        },
        {
            "buffer" : 0,
            "byteLength" : 72,
            "byteOffset" : 77088
        }
    ],
    "samplers" : [
        {
            "magFilter" : 9729,
            "minFilter" : 9987
        }
    ],
    "buffers" : [
        {
            "byteLength" : 77160,
            "uri" : "floor.bin"
        }
    ]
}
