{
    "asset" : {
        "generator" : "Khronos glTF Blender I/O v1.7.32",
        "version" : "2.0"
    },
    "scene" : 0,
    "scenes" : [
        {
            "name" : "Scene",
            "nodes" : [
                0,
                1,
                2,
                3,
                4,
                5,
                6,
                7
            ]
        }
    ],
    "nodes" : [
        {
            "mesh" : 0,
            "name" : "Circle.007",
            "rotation" : [
                0,
                0.7071068286895752,
                -0.7071068286895752,
                -1.1520232590100932e-07
            ],
            "scale" : [
                1.1601731777191162,
                0.3590964078903198,
                1.1601731777191162
            ],
            "translation" : [
                0.16247530281543732,
                3.569223403930664,
                -15.558979988098145
            ]
        },
        {
            "mesh" : 1,
            "name" : "Plane",
            "rotation" : [
                0.7071068286895752,
                0,
                0,
                0.7071068286895752
            ],
            "scale" : [
                21.172504425048828,
                1,
                -9.86835765838623
            ],
            "translation" : [
                -0.09979629516601562,
                10.325851440429688,
                -14.876626968383789
            ]
        },
        {
            "mesh" : 2,
            "name" : "Circle.001",
            "scale" : [
                8.711575508117676,
                8.711575508117676,
                8.711575508117676
            ],
            "translation" : [
                0.015964612364768982,
                1.5616155862808228,
                -76.75466918945312
            ]
        },
        {
            "mesh" : 3,
            "name" : "Circle.006",
            "scale" : [
                22.534412384033203,
                12.032320022583008,
                22.534412384033203
            ],
            "translation" : [
                0,
                0,
                0.7999972701072693
            ]
        },
        {
            "mesh" : 4,
            "name" : "Cube.003",
            "scale" : [
                1.8947560787200928,
                0.33344340324401855,
                50.79635238647461
            ],
            "translation" : [
                0.015964612364768982,
                1.541643738746643,
                -46.79924011230469
            ]
        },
        {
            "mesh" : 5,
            "name" : "Plane.001",
            "scale" : [
                26.29722023010254,
                26.29722023010254,
                -47.2042121887207
            ],
            "translation" : [
                0.015964612364768982,
                1.7031335830688477,
                -55.13880920410156
            ]
        },
        {
            "mesh" : 6,
            "name" : "Plane.006",
            "rotation" : [
                0,
                0.6755902171134949,
                0,
                0.7372773289680481
            ],
            "translation" : [
                -0.3360951542854309,
                -0.12433064728975296,
                -0.20130115747451782
            ]
        },
        {
            "name" : "Shoes",
            "rotation" : [
                0.5477803349494934,
                0.3834463059902191,
                0,
                0.7435762286186218
            ],
            "scale" : [
                0.5357949137687683,
                0.5357949137687683,
                0.5357949137687683
            ],
            "translation" : [
                -6.351342678070068,
                5.495176315307617,
                -35.29228591918945
            ]
        }
    ],
    "materials" : [
        {
            "doubleSided" : true,
            "name" : "Material",
            "pbrMetallicRoughness" : {
                "baseColorFactor" : [
                    0.2529570162296295,
                    0.14520300924777985,
                    0.03705274313688278,
                    1
                ],
                "roughnessFactor" : 0.5
            }
        },
        {
            "doubleSided" : true,
            "name" : "Procedual Marble Granite Black Galaxy",
            "pbrMetallicRoughness" : {
                "baseColorTexture" : {
                    "index" : 0
                },
                "metallicRoughnessTexture" : {
                    "index" : 1
                }
            }
        },
        {
            "doubleSided" : true,
            "name" : "Touched Plastic Smooth",
            "pbrMetallicRoughness" : {
                "baseColorFactor" : [
                    0.013410553336143494,
                    0.013410553336143494,
                    0.013410553336143494,
                    1
                ],
                "metallicRoughnessTexture" : {
                    "index" : 2
                }
            }
        },
        {
            "doubleSided" : true,
            "name" : "Procedual Marble Granite Black Galaxy.002",
            "pbrMetallicRoughness" : {
                "baseColorTexture" : {
                    "index" : 3
                },
                "metallicRoughnessTexture" : {
                    "index" : 4
                }
            }
        },
        {
            "doubleSided" : true,
            "name" : "Dark procedural tiles.003",
            "normalTexture" : {
                "index" : 5,
                "scale" : 0.20000000298023224
            },
            "pbrMetallicRoughness" : {
                "baseColorTexture" : {
                    "index" : 6
                },
                "metallicFactor" : 0.290909081697464,
                "roughnessFactor" : 0.8339483737945557
            }
        }
    ],
    "meshes" : [
        {
            "name" : "Circle.002",
            "primitives" : [
                {
                    "attributes" : {
                        "POSITION" : 0,
                        "NORMAL" : 1,
                        "TEXCOORD_0" : 2
                    },
                    "indices" : 3,
                    "material" : 0
                }
            ]
        },
        {
            "name" : "Plane.001",
            "primitives" : [
                {
                    "attributes" : {
                        "POSITION" : 4,
                        "NORMAL" : 5,
                        "TEXCOORD_0" : 6
                    },
                    "indices" : 7,
                    "material" : 1
                }
            ]
        },
        {
            "name" : "Circle.003",
            "primitives" : [
                {
                    "attributes" : {
                        "POSITION" : 8,
                        "NORMAL" : 9,
                        "TEXCOORD_0" : 10
                    },
                    "indices" : 11,
                    "material" : 2
                }
            ]
        },
        {
            "name" : "Circle.004",
            "primitives" : [
                {
                    "attributes" : {
                        "POSITION" : 12,
                        "NORMAL" : 13,
                        "TEXCOORD_0" : 14
                    },
                    "indices" : 15,
                    "material" : 3
                }
            ]
        },
        {
            "name" : "Cube.001",
            "primitives" : [
                {
                    "attributes" : {
                        "POSITION" : 16,
                        "NORMAL" : 17,
                        "TEXCOORD_0" : 18
                    },
                    "indices" : 19,
                    "material" : 4
                }
            ]
        },
        {
            "name" : "Plane.002",
            "primitives" : [
                {
                    "attributes" : {
                        "POSITION" : 20,
                        "NORMAL" : 21,
                        "TEXCOORD_0" : 22,
                        "TEXCOORD_1" : 23
                    },
                    "indices" : 24,
                    "material" : 1
                }
            ]
        },
        {
            "name" : "Plane.004",
            "primitives" : [
                {
                    "attributes" : {
                        "POSITION" : 25,
                        "NORMAL" : 26,
                        "TEXCOORD_0" : 27
                    },
                    "indices" : 28
                }
            ]
        }
    ],
    "textures" : [
        {
            "sampler" : 0,
            "source" : 0
        },
        {
            "sampler" : 0,
            "source" : 1
        },
        {
            "sampler" : 0,
            "source" : 2
        },
        {
            "sampler" : 0,
            "source" : 3
        },
        {
            "sampler" : 0,
            "source" : 4
        },
        {
            "sampler" : 0,
            "source" : 5
        },
        {
            "sampler" : 0,
            "source" : 6
        }
    ],
    "images" : [
        {
            "mimeType" : "image/png",
            "name" : "Floor_Marble_Diff",
            "uri" : "textures/Floor_Marble_Diff.png"
        },
        {
            "mimeType" : "image/png",
            "name" : "Floor_Marble_Emitt-Floor_MArblew_Rough",
            "uri" : "textures/Floor_Marble_Emitt-Floor_MArblew_Rough.png"
        },
        {
            "mimeType" : "image/png",
            "name" : "Level Rough",
            "uri" : "textures/Level%20Rough.png"
        },
        {
            "mimeType" : "image/png",
            "name" : "Wall_Marble_Diff",
            "uri" : "textures/Wall_Marble_Diff.png"
        },
        {
            "mimeType" : "image/png",
            "name" : "Wall_Marble_Metallic-Wall_Marble_Roughness",
            "uri" : "textures/Wall_Marble_Metallic-Wall_Marble_Roughness.png"
        },
        {
            "mimeType" : "image/png",
            "name" : "Runaway_Normal_Map",
            "uri" : "textures/Runaway_Normal_Map.png"
        },
        {
            "mimeType" : "image/png",
            "name" : "Runaway_Floor",
            "uri" : "textures/Runaway_Floor.png"
        }
    ],
    "accessors" : [
        {
            "bufferView" : 0,
            "componentType" : 5126,
            "count" : 316,
            "max" : [
                2.52398681640625,
                1.6887972833501408e-06,
                2.5273025035858154
            ],
            "min" : [
                -2.220487594604492,
                -4.652705669403076,
                -1.8697140216827393
            ],
            "type" : "VEC3"
        },
        {
            "bufferView" : 1,
            "componentType" : 5126,
            "count" : 316,
            "type" : "VEC3"
        },
        {
            "bufferView" : 2,
            "componentType" : 5126,
            "count" : 316,
            "type" : "VEC2"
        },
        {
            "bufferView" : 3,
            "componentType" : 5123,
            "count" : 324,
            "type" : "SCALAR"
        },
        {
            "bufferView" : 4,
            "componentType" : 5126,
            "count" : 14,
            "max" : [
                1,
                0,
                1
            ],
            "min" : [
                -1,
                0,
                -1
            ],
            "type" : "VEC3"
        },
        {
            "bufferView" : 5,
            "componentType" : 5126,
            "count" : 14,
            "type" : "VEC3"
        },
        {
            "bufferView" : 6,
            "componentType" : 5126,
            "count" : 14,
            "type" : "VEC2"
        },
        {
            "bufferView" : 7,
            "componentType" : 5123,
            "count" : 36,
            "type" : "SCALAR"
        },
        {
            "bufferView" : 8,
            "componentType" : 5126,
            "count" : 247,
            "max" : [
                1,
                0.08124728500843048,
                1
            ],
            "min" : [
                -1,
                0,
                -1.7617197036743164
            ],
            "type" : "VEC3"
        },
        {
            "bufferView" : 9,
            "componentType" : 5126,
            "count" : 247,
            "type" : "VEC3"
        },
        {
            "bufferView" : 10,
            "componentType" : 5126,
            "count" : 247,
            "type" : "VEC2"
        },
        {
            "bufferView" : 11,
            "componentType" : 5123,
            "count" : 282,
            "type" : "SCALAR"
        },
        {
            "bufferView" : 12,
            "componentType" : 5126,
            "count" : 54616,
            "max" : [
                1.3014817237854004,
                1.6641470193862915,
                -0.6006172895431519
            ],
            "min" : [
                -1.277956247329712,
                -0.3589950501918793,
                -4.068984031677246
            ],
            "type" : "VEC3"
        },
        {
            "bufferView" : 13,
            "componentType" : 5126,
            "count" : 54616,
            "type" : "VEC3"
        },
        {
            "bufferView" : 14,
            "componentType" : 5126,
            "count" : 54616,
            "type" : "VEC2"
        },
        {
            "bufferView" : 15,
            "componentType" : 5123,
            "count" : 307200,
            "type" : "SCALAR"
        },
        {
            "bufferView" : 16,
            "componentType" : 5126,
            "count" : 2239,
            "max" : [
                1.0000001192092896,
                1.0000001192092896,
                0.7845274806022644
            ],
            "min" : [
                -1.0000001192092896,
                -1.0000001192092896,
                -1.0000001192092896
            ],
            "type" : "VEC3"
        },
        {
            "bufferView" : 17,
            "componentType" : 5126,
            "count" : 2239,
            "type" : "VEC3"
        },
        {
            "bufferView" : 18,
            "componentType" : 5126,
            "count" : 2239,
            "type" : "VEC2"
        },
        {
            "bufferView" : 19,
            "componentType" : 5123,
            "count" : 2304,
            "type" : "SCALAR"
        },
        {
            "bufferView" : 20,
            "componentType" : 5126,
            "count" : 4,
            "max" : [
                1,
                0,
                1
            ],
            "min" : [
                -1,
                0,
                -1
            ],
            "type" : "VEC3"
        },
        {
            "bufferView" : 21,
            "componentType" : 5126,
            "count" : 4,
            "type" : "VEC3"
        },
        {
            "bufferView" : 22,
            "componentType" : 5126,
            "count" : 4,
            "type" : "VEC2"
        },
        {
            "bufferView" : 23,
            "componentType" : 5126,
            "count" : 4,
            "type" : "VEC2"
        },
        {
            "bufferView" : 24,
            "componentType" : 5123,
            "count" : 6,
            "type" : "SCALAR"
        },
        {
            "bufferView" : 25,
            "componentType" : 5126,
            "count" : 69838,
            "max" : [
                0.12318430095911026,
                0.0904705822467804,
                0.16635823249816895
            ],
            "min" : [
                -0.14518706500530243,
                1.839547257986851e-05,
                -0.029500097036361694
            ],
            "type" : "VEC3"
        },
        {
            "bufferView" : 26,
            "componentType" : 5126,
            "count" : 69838,
            "type" : "VEC3"
        },
        {
            "bufferView" : 27,
            "componentType" : 5126,
            "count" : 69838,
            "type" : "VEC2"
        },
        {
            "bufferView" : 28,
            "componentType" : 5125,
            "count" : 118632,
            "type" : "SCALAR"
        }
    ],
    "bufferViews" : [
        {
            "buffer" : 0,
            "byteLength" : 3792,
            "byteOffset" : 0
        },
        {
            "buffer" : 0,
            "byteLength" : 3792,
            "byteOffset" : 3792
        },
        {
            "buffer" : 0,
            "byteLength" : 2528,
            "byteOffset" : 7584
        },
        {
            "buffer" : 0,
            "byteLength" : 648,
            "byteOffset" : 10112
        },
        {
            "buffer" : 0,
            "byteLength" : 168,
            "byteOffset" : 10760
        },
        {
            "buffer" : 0,
            "byteLength" : 168,
            "byteOffset" : 10928
        },
        {
            "buffer" : 0,
            "byteLength" : 112,
            "byteOffset" : 11096
        },
        {
            "buffer" : 0,
            "byteLength" : 72,
            "byteOffset" : 11208
        },
        {
            "buffer" : 0,
            "byteLength" : 2964,
            "byteOffset" : 11280
        },
        {
            "buffer" : 0,
            "byteLength" : 2964,
            "byteOffset" : 14244
        },
        {
            "buffer" : 0,
            "byteLength" : 1976,
            "byteOffset" : 17208
        },
        {
            "buffer" : 0,
            "byteLength" : 564,
            "byteOffset" : 19184
        },
        {
            "buffer" : 0,
            "byteLength" : 655392,
            "byteOffset" : 19748
        },
        {
            "buffer" : 0,
            "byteLength" : 655392,
            "byteOffset" : 675140
        },
        {
            "buffer" : 0,
            "byteLength" : 436928,
            "byteOffset" : 1330532
        },
        {
            "buffer" : 0,
            "byteLength" : 614400,
            "byteOffset" : 1767460
        },
        {
            "buffer" : 0,
            "byteLength" : 26868,
            "byteOffset" : 2381860
        },
        {
            "buffer" : 0,
            "byteLength" : 26868,
            "byteOffset" : 2408728
        },
        {
            "buffer" : 0,
            "byteLength" : 17912,
            "byteOffset" : 2435596
        },
        {
            "buffer" : 0,
            "byteLength" : 4608,
            "byteOffset" : 2453508
        },
        {
            "buffer" : 0,
            "byteLength" : 48,
            "byteOffset" : 2458116
        },
        {
            "buffer" : 0,
            "byteLength" : 48,
            "byteOffset" : 2458164
        },
        {
            "buffer" : 0,
            "byteLength" : 32,
            "byteOffset" : 2458212
        },
        {
            "buffer" : 0,
            "byteLength" : 32,
            "byteOffset" : 2458244
        },
        {
            "buffer" : 0,
            "byteLength" : 12,
            "byteOffset" : 2458276
        },
        {
            "buffer" : 0,
            "byteLength" : 838056,
            "byteOffset" : 2458288
        },
        {
            "buffer" : 0,
            "byteLength" : 838056,
            "byteOffset" : 3296344
        },
        {
            "buffer" : 0,
            "byteLength" : 558704,
            "byteOffset" : 4134400
        },
        {
            "buffer" : 0,
            "byteLength" : 474528,
            "byteOffset" : 4693104
        }
    ],
    "samplers" : [
        {
            "magFilter" : 9729,
            "minFilter" : 9987
        }
    ],
    "buffers" : [
        {
            "byteLength" : 5167632,
            "uri" : "phase2 R3.bin"
        }
    ]
}
