{
    "asset" : {
        "generator" : "Khronos glTF Blender I/O v1.6.16",
        "version" : "2.0"
    },
    "scene" : 0,
    "scenes" : [
        {
            "name" : "Scene",
            "nodes" : [
                0
            ]
        }
    ],
    "nodes" : [
        {
            "mesh" : 0,
            "name" : "Curve.005",
            "rotation" : [
                0.7071068286895752,
                0,
                0,
                0.7071068286895752
            ],
            "scale" : [
                20.378559112548828,
                13.600149154663086,
                20.378559112548828
            ],
            "translation" : [
                -1.5559056997299194,
                -0.1324700117111206,
                -0.04906381666660309
            ]
        }
    ],
    "materials" : [
        {
            "doubleSided" : true,
            "emissiveFactor" : [
                5.960464477539063e-08,
                5.960464477539063e-08,
                5.960464477539063e-08
            ],
            "name" : "Chrome 2",
            "pbrMetallicRoughness" : {
                "baseColorFactor" : [
                    1,
                    0.9649544954299927,
                    0.7968505620956421,
                    1
                ],
                "roughnessFactor" : 0.07999999821186066
            }
        }
    ],
    "meshes" : [
        {
            "name" : "Curve.005",
            "primitives" : [
                {
                    "attributes" : {
                        "POSITION" : 0,
                        "NORMAL" : 1
                    },
                    "indices" : 2,
                    "material" : 0
                }
            ]
        }
    ],
    "accessors" : [
        {
            "bufferView" : 0,
            "componentType" : 5126,
            "count" : 867216,
            "max" : [
                0.14374960958957672,
                0.0072272345423698425,
                -0.0023924189154058695
            ],
            "min" : [
                0.11091133952140808,
                6.11252908129245e-05,
                -0.028988292440772057
            ],
            "type" : "VEC3"
        },
        {
            "bufferView" : 1,
            "componentType" : 5126,
            "count" : 867216,
            "type" : "VEC3"
        },
        {
            "bufferView" : 2,
            "componentType" : 5125,
            "count" : 1300824,
            "type" : "SCALAR"
        }
    ],
    "bufferViews" : [
        {
            "buffer" : 0,
            "byteLength" : 10406592,
            "byteOffset" : 0
        },
        {
            "buffer" : 0,
            "byteLength" : 10406592,
            "byteOffset" : 10406592
        },
        {
            "buffer" : 0,
            "byteLength" : 5203296,
            "byteOffset" : 20813184
        }
    ],
    "buffers" : [
        {
            "byteLength" : 26016480,
            "uri" : "d.bin"
        }
    ]
}
