{
    "asset" : {
        "generator" : "Khronos glTF Blender I/O v1.6.16",
        "version" : "2.0"
    },
    "scene" : 0,
    "scenes" : [
        {
            "name" : "Scene",
            "nodes" : [
                0,
                1,
                2,
                3,
                4,
                5,
                6,
                7
            ]
        }
    ],
    "nodes" : [
        {
            "mesh" : 0,
            "name" : "Circle.001",
            "rotation" : [
                -0.0075841848738491535,
                0,
                0,
                0.999971330165863
            ],
            "scale" : [
                5.805410861968994,
                5.805410861968994,
                5.805410861968994
            ],
            "translation" : [
                0.062259942293167114,
                -4.175655841827393,
                -136.68798828125
            ]
        },
        {
            "mesh" : 1,
            "name" : "Circle.003",
            "rotation" : [
                -0.00263287709094584,
                2.6916129627352348e-06,
                0.001022304524667561,
                0.9999960064888
            ],
            "scale" : [
                11.173290252685547,
                11.173290252685547,
                11.173290252685547
            ],
            "translation" : [
                0.062259942293167114,
                -0.7291918992996216,
                -136.68798828125
            ]
        },
        {
            "mesh" : 2,
            "name" : "Cylinder.001",
            "scale" : [
                1,
                11.654547691345215,
                1
            ],
            "translation" : [
                -12.19240951538086,
                5.156540393829346,
                -151.03753662109375
            ]
        },
        {
            "mesh" : 3,
            "name" : "Cylinder.003",
            "scale" : [
                1,
                11.654547691345215,
                1
            ],
            "translation" : [
                11.437610626220703,
                5.156540393829346,
                -151.03753662109375
            ]
        },
        {
            "mesh" : 4,
            "name" : "Circle.012",
            "rotation" : [
                0.001932376530021429,
                7.358654784184182e-06,
                0.0010222815908491611,
                0.999997615814209
            ],
            "scale" : [
                11.173290252685547,
                11.173290252685547,
                11.173290252685547
            ],
            "translation" : [
                0.06508397310972214,
                -2.1104631423950195,
                -136.69786071777344
            ]
        },
        {
            "mesh" : 5,
            "name" : "Cylinder.004",
            "scale" : [
                11.110894203186035,
                1.7789599895477295,
                11.110894203186035
            ],
            "translation" : [
                -0.19914862513542175,
                -0.34313952922821045,
                -138.44044494628906
            ]
        },
        {
            "mesh" : 6,
            "name" : "Cylinder.005",
            "scale" : [
                11.110894203186035,
                1.7789599895477295,
                11.110894203186035
            ],
            "translation" : [
                -0.19914862513542175,
                -1.6143925189971924,
                -138.44044494628906
            ]
        },
        {
            "mesh" : 7,
            "name" : "Cube.005",
            "scale" : [
                2.4693470001220703,
                2.566063165664673,
                0.8789552450180054
            ],
            "translation" : [
                0.23813167214393616,
                6.856219291687012,
                -131.05076599121094
            ]
        }
    ],
    "materials" : [
        {
            "doubleSided" : true,
            "name" : "Procedual Marble Granite Black Galaxy.001",
            "pbrMetallicRoughness" : {
                "baseColorTexture" : {
                    "index" : 0
                },
                "metallicRoughnessTexture" : {
                    "index" : 1
                }
            }
        },
        {
            "doubleSided" : true,
            "name" : "Procedural rough Concrete.002",
            "normalTexture" : {
                "index" : 2
            },
            "pbrMetallicRoughness" : {
                "baseColorTexture" : {
                    "index" : 3
                },
                "metallicFactor" : 0,
                "roughnessFactor" : 0.8454545736312866
            }
        },
        {
            "doubleSided" : true,
            "name" : "Material.002",
            "pbrMetallicRoughness" : {}
        },
        {
            "doubleSided" : true,
            "name" : "Gold.001",
            "pbrMetallicRoughness" : {
                "baseColorFactor" : [
                    0.3046674132347107,
                    0.18297863006591797,
                    0.042607374489307404,
                    1
                ],
                "roughnessFactor" : 0.5
            }
        },
        {
            "doubleSided" : true,
            "name" : "Procedural rough Concrete.004",
            "normalTexture" : {
                "index" : 4
            },
            "pbrMetallicRoughness" : {
                "baseColorTexture" : {
                    "index" : 5
                },
                "metallicFactor" : 0
            }
        }
    ],
    "meshes" : [
        {
            "name" : "Circle.006",
            "primitives" : [
                {
                    "attributes" : {
                        "POSITION" : 0,
                        "NORMAL" : 1,
                        "TEXCOORD_0" : 2
                    },
                    "indices" : 3,
                    "material" : 0
                }
            ]
        },
        {
            "name" : "Circle.007",
            "primitives" : [
                {
                    "attributes" : {
                        "POSITION" : 4,
                        "NORMAL" : 5,
                        "TEXCOORD_0" : 6
                    },
                    "indices" : 7,
                    "material" : 1
                },
                {
                    "attributes" : {
                        "POSITION" : 8,
                        "NORMAL" : 9,
                        "TEXCOORD_0" : 10
                    },
                    "indices" : 11,
                    "material" : 2
                }
            ]
        },
        {
            "name" : "Cylinder.001",
            "primitives" : [
                {
                    "attributes" : {
                        "POSITION" : 12,
                        "NORMAL" : 13,
                        "TEXCOORD_0" : 14,
                        "TEXCOORD_1" : 15
                    },
                    "indices" : 16,
                    "material" : 3
                }
            ]
        },
        {
            "name" : "Cylinder.003",
            "primitives" : [
                {
                    "attributes" : {
                        "POSITION" : 17,
                        "NORMAL" : 18,
                        "TEXCOORD_0" : 19
                    },
                    "indices" : 16,
                    "material" : 3
                }
            ]
        },
        {
            "name" : "Circle.021",
            "primitives" : [
                {
                    "attributes" : {
                        "POSITION" : 20,
                        "NORMAL" : 21,
                        "TEXCOORD_0" : 22
                    },
                    "indices" : 23,
                    "material" : 2
                }
            ]
        },
        {
            "name" : "Cylinder.008",
            "primitives" : [
                {
                    "attributes" : {
                        "POSITION" : 24,
                        "NORMAL" : 25,
                        "TEXCOORD_0" : 26
                    },
                    "indices" : 27,
                    "material" : 4
                }
            ]
        },
        {
            "name" : "Cylinder.010",
            "primitives" : [
                {
                    "attributes" : {
                        "POSITION" : 28,
                        "NORMAL" : 29,
                        "TEXCOORD_0" : 30
                    },
                    "indices" : 31,
                    "material" : 2
                }
            ]
        },
        {
            "name" : "Cube.008",
            "primitives" : [
                {
                    "attributes" : {
                        "POSITION" : 32,
                        "NORMAL" : 33,
                        "TEXCOORD_0" : 34
                    },
                    "indices" : 35,
                    "material" : 3
                }
            ]
        }
    ],
    "textures" : [
        {
            "sampler" : 0,
            "source" : 0
        },
        {
            "sampler" : 0,
            "source" : 1
        },
        {
            "sampler" : 0,
            "source" : 2
        },
        {
            "sampler" : 0,
            "source" : 3
        },
        {
            "sampler" : 0,
            "source" : 4
        },
        {
            "sampler" : 0,
            "source" : 5
        }
    ],
    "images" : [
        {
            "mimeType" : "image/png",
            "name" : "Marble_Diff",
            "uri" : "textures/Marble_Diff.png"
        },
        {
            "mimeType" : "image/png",
            "name" : "Marble_Emit-Marble_Rough",
            "uri" : "textures/Marble_Emit-Marble_Rough.png"
        },
        {
            "mimeType" : "image/png",
            "name" : "Floor_Center_Normal",
            "uri" : "textures/Floor_Center_Normal.png"
        },
        {
            "mimeType" : "image/png",
            "name" : "Floor_Center_Diff",
            "uri" : "textures/Floor_Center_Diff.png"
        },
        {
            "mimeType" : "image/png",
            "name" : "Side Floor Norm",
            "uri" : "textures/Side%20Floor%20Norm.png"
        },
        {
            "mimeType" : "image/png",
            "name" : "Side Floor Diff",
            "uri" : "textures/Side%20Floor%20Diff.png"
        }
    ],
    "accessors" : [
        {
            "bufferView" : 0,
            "componentType" : 5126,
            "count" : 245,
            "max" : [
                1,
                1.0319273471832275,
                1
            ],
            "min" : [
                -1,
                0.8146000504493713,
                -2.175431489944458
            ],
            "type" : "VEC3"
        },
        {
            "bufferView" : 1,
            "componentType" : 5126,
            "count" : 245,
            "type" : "VEC3"
        },
        {
            "bufferView" : 2,
            "componentType" : 5126,
            "count" : 245,
            "type" : "VEC2"
        },
        {
            "bufferView" : 3,
            "componentType" : 5123,
            "count" : 954,
            "type" : "SCALAR"
        },
        {
            "bufferView" : 4,
            "componentType" : 5126,
            "count" : 284,
            "max" : [
                1,
                0.217327281832695,
                1
            ],
            "min" : [
                -1.0000362396240234,
                0,
                -2.1990160942077637
            ],
            "type" : "VEC3"
        },
        {
            "bufferView" : 5,
            "componentType" : 5126,
            "count" : 284,
            "type" : "VEC3"
        },
        {
            "bufferView" : 6,
            "componentType" : 5126,
            "count" : 284,
            "type" : "VEC2"
        },
        {
            "bufferView" : 7,
            "componentType" : 5123,
            "count" : 366,
            "type" : "SCALAR"
        },
        {
            "bufferView" : 8,
            "componentType" : 5126,
            "count" : 138,
            "max" : [
                0.9940075874328613,
                0.2231534868478775,
                -0.3189057409763336
            ],
            "min" : [
                -0.9779549241065979,
                0.19155214726924896,
                -2.1990160942077637
            ],
            "type" : "VEC3"
        },
        {
            "bufferView" : 9,
            "componentType" : 5126,
            "count" : 138,
            "type" : "VEC3"
        },
        {
            "bufferView" : 10,
            "componentType" : 5126,
            "count" : 138,
            "type" : "VEC2"
        },
        {
            "bufferView" : 11,
            "componentType" : 5123,
            "count" : 144,
            "type" : "SCALAR"
        },
        {
            "bufferView" : 12,
            "componentType" : 5126,
            "count" : 268,
            "max" : [
                1,
                1,
                1
            ],
            "min" : [
                -1,
                -1,
                -1
            ],
            "type" : "VEC3"
        },
        {
            "bufferView" : 13,
            "componentType" : 5126,
            "count" : 268,
            "type" : "VEC3"
        },
        {
            "bufferView" : 14,
            "componentType" : 5126,
            "count" : 268,
            "type" : "VEC2"
        },
        {
            "bufferView" : 15,
            "componentType" : 5126,
            "count" : 268,
            "type" : "VEC2"
        },
        {
            "bufferView" : 16,
            "componentType" : 5123,
            "count" : 372,
            "type" : "SCALAR"
        },
        {
            "bufferView" : 17,
            "componentType" : 5126,
            "count" : 268,
            "max" : [
                1,
                1,
                1
            ],
            "min" : [
                -1,
                -1,
                -1
            ],
            "type" : "VEC3"
        },
        {
            "bufferView" : 18,
            "componentType" : 5126,
            "count" : 268,
            "type" : "VEC3"
        },
        {
            "bufferView" : 19,
            "componentType" : 5126,
            "count" : 268,
            "type" : "VEC2"
        },
        {
            "bufferView" : 20,
            "componentType" : 5126,
            "count" : 384,
            "max" : [
                0.9932539463043213,
                0.4009864032268524,
                -0.31911998987197876
            ],
            "min" : [
                -0.9789890646934509,
                0.17412540316581726,
                -2.2012360095977783
            ],
            "type" : "VEC3"
        },
        {
            "bufferView" : 21,
            "componentType" : 5126,
            "count" : 384,
            "type" : "VEC3"
        },
        {
            "bufferView" : 22,
            "componentType" : 5126,
            "count" : 384,
            "type" : "VEC2"
        },
        {
            "bufferView" : 23,
            "componentType" : 5123,
            "count" : 576,
            "type" : "SCALAR"
        },
        {
            "bufferView" : 24,
            "componentType" : 5126,
            "count" : 384,
            "max" : [
                2.1552505493164062,
                1.001075029373169,
                0.9732895493507385
            ],
            "min" : [
                -2.108981132507324,
                -1.0544373989105225,
                -1.7319495677947998
            ],
            "type" : "VEC3"
        },
        {
            "bufferView" : 25,
            "componentType" : 5126,
            "count" : 384,
            "type" : "VEC3"
        },
        {
            "bufferView" : 26,
            "componentType" : 5126,
            "count" : 384,
            "type" : "VEC2"
        },
        {
            "bufferView" : 27,
            "componentType" : 5123,
            "count" : 744,
            "type" : "SCALAR"
        },
        {
            "bufferView" : 28,
            "componentType" : 5126,
            "count" : 400,
            "max" : [
                2.1515181064605713,
                2.2632064819335938,
                -0.2667999267578125
            ],
            "min" : [
                -2.103945732116699,
                0.9381704330444336,
                -1.7319495677947998
            ],
            "type" : "VEC3"
        },
        {
            "bufferView" : 29,
            "componentType" : 5126,
            "count" : 400,
            "type" : "VEC3"
        },
        {
            "bufferView" : 30,
            "componentType" : 5126,
            "count" : 400,
            "type" : "VEC2"
        },
        {
            "bufferView" : 31,
            "componentType" : 5123,
            "count" : 1224,
            "type" : "SCALAR"
        },
        {
            "bufferView" : 32,
            "componentType" : 5126,
            "count" : 3931,
            "max" : [
                1.2838473320007324,
                1.0449120998382568,
                1
            ],
            "min" : [
                -1.2838473320007324,
                -2.4220852851867676,
                -1
            ],
            "type" : "VEC3"
        },
        {
            "bufferView" : 33,
            "componentType" : 5126,
            "count" : 3931,
            "type" : "VEC3"
        },
        {
            "bufferView" : 34,
            "componentType" : 5126,
            "count" : 3931,
            "type" : "VEC2"
        },
        {
            "bufferView" : 35,
            "componentType" : 5123,
            "count" : 6042,
            "type" : "SCALAR"
        }
    ],
    "bufferViews" : [
        {
            "buffer" : 0,
            "byteLength" : 2940,
            "byteOffset" : 0
        },
        {
            "buffer" : 0,
            "byteLength" : 2940,
            "byteOffset" : 2940
        },
        {
            "buffer" : 0,
            "byteLength" : 1960,
            "byteOffset" : 5880
        },
        {
            "buffer" : 0,
            "byteLength" : 1908,
            "byteOffset" : 7840
        },
        {
            "buffer" : 0,
            "byteLength" : 3408,
            "byteOffset" : 9748
        },
        {
            "buffer" : 0,
            "byteLength" : 3408,
            "byteOffset" : 13156
        },
        {
            "buffer" : 0,
            "byteLength" : 2272,
            "byteOffset" : 16564
        },
        {
            "buffer" : 0,
            "byteLength" : 732,
            "byteOffset" : 18836
        },
        {
            "buffer" : 0,
            "byteLength" : 1656,
            "byteOffset" : 19568
        },
        {
            "buffer" : 0,
            "byteLength" : 1656,
            "byteOffset" : 21224
        },
        {
            "buffer" : 0,
            "byteLength" : 1104,
            "byteOffset" : 22880
        },
        {
            "buffer" : 0,
            "byteLength" : 288,
            "byteOffset" : 23984
        },
        {
            "buffer" : 0,
            "byteLength" : 3216,
            "byteOffset" : 24272
        },
        {
            "buffer" : 0,
            "byteLength" : 3216,
            "byteOffset" : 27488
        },
        {
            "buffer" : 0,
            "byteLength" : 2144,
            "byteOffset" : 30704
        },
        {
            "buffer" : 0,
            "byteLength" : 2144,
            "byteOffset" : 32848
        },
        {
            "buffer" : 0,
            "byteLength" : 744,
            "byteOffset" : 34992
        },
        {
            "buffer" : 0,
            "byteLength" : 3216,
            "byteOffset" : 35736
        },
        {
            "buffer" : 0,
            "byteLength" : 3216,
            "byteOffset" : 38952
        },
        {
            "buffer" : 0,
            "byteLength" : 2144,
            "byteOffset" : 42168
        },
        {
            "buffer" : 0,
            "byteLength" : 4608,
            "byteOffset" : 44312
        },
        {
            "buffer" : 0,
            "byteLength" : 4608,
            "byteOffset" : 48920
        },
        {
            "buffer" : 0,
            "byteLength" : 3072,
            "byteOffset" : 53528
        },
        {
            "buffer" : 0,
            "byteLength" : 1152,
            "byteOffset" : 56600
        },
        {
            "buffer" : 0,
            "byteLength" : 4608,
            "byteOffset" : 57752
        },
        {
            "buffer" : 0,
            "byteLength" : 4608,
            "byteOffset" : 62360
        },
        {
            "buffer" : 0,
            "byteLength" : 3072,
            "byteOffset" : 66968
        },
        {
            "buffer" : 0,
            "byteLength" : 1488,
            "byteOffset" : 70040
        },
        {
            "buffer" : 0,
            "byteLength" : 4800,
            "byteOffset" : 71528
        },
        {
            "buffer" : 0,
            "byteLength" : 4800,
            "byteOffset" : 76328
        },
        {
            "buffer" : 0,
            "byteLength" : 3200,
            "byteOffset" : 81128
        },
        {
            "buffer" : 0,
            "byteLength" : 2448,
            "byteOffset" : 84328
        },
        {
            "buffer" : 0,
            "byteLength" : 47172,
            "byteOffset" : 86776
        },
        {
            "buffer" : 0,
            "byteLength" : 47172,
            "byteOffset" : 133948
        },
        {
            "buffer" : 0,
            "byteLength" : 31448,
            "byteOffset" : 181120
        },
        {
            "buffer" : 0,
            "byteLength" : 12084,
            "byteOffset" : 212568
        }
    ],
    "samplers" : [
        {
            "magFilter" : 9729,
            "minFilter" : 9987
        }
    ],
    "buffers" : [
        {
            "byteLength" : 224652,
            "uri" : "phase4-terrace.bin"
        }
    ]
}
