{
    "asset" : {
        "generator" : "Khronos glTF Blender I/O v1.7.32",
        "version" : "2.0"
    },
    "scene" : 0,
    "scenes" : [
        {
            "name" : "Scene",
            "nodes" : [
                0
            ]
        }
    ],
    "nodes" : [
        {
            "mesh" : 0,
            "name" : "rock.002",
            "rotation" : [
                -0.05643671378493309,
                -0.9875248670578003,
                -0.07993918657302856,
                -0.12336647510528564
            ],
            "scale" : [
                -134.49032592773438,
                -58.79398727416992,
                -139.0677032470703
            ],
            "translation" : [
                -6.9019927978515625,
                -29.784053802490234,
                -150.37338256835938
            ]
        }
    ],
    "materials" : [
        {
            "doubleSided" : true,
            "name" : "Ground",
            "normalTexture" : {
                "index" : 0,
                "scale" : 1.5999999046325684
            },
            "pbrMetallicRoughness" : {
                "baseColorTexture" : {
                    "index" : 1
                },
                "metallicFactor" : 0,
                "metallicRoughnessTexture" : {
                    "index" : 2
                }
            }
        }
    ],
    "meshes" : [
        {
            "name" : "rock.002",
            "primitives" : [
                {
                    "attributes" : {
                        "POSITION" : 0,
                        "NORMAL" : 1,
                        "TEXCOORD_0" : 2
                    },
                    "indices" : 3,
                    "material" : 0
                }
            ]
        }
    ],
    "textures" : [
        {
            "sampler" : 0,
            "source" : 0
        },
        {
            "sampler" : 0,
            "source" : 1
        },
        {
            "sampler" : 0,
            "source" : 2
        }
    ],
    "images" : [
        {
            "mimeType" : "image/png",
            "name" : "Dirt_Normal",
            "uri" : "textures/Dirt_Normal.png"
        },
        {
            "mimeType" : "image/png",
            "name" : "Dirt_Diff",
            "uri" : "textures/Dirt_Diff.png"
        },
        {
            "mimeType" : "image/png",
            "name" : "Dirt_Rough",
            "uri" : "textures/Dirt_Rough.png"
        }
    ],
    "accessors" : [
        {
            "bufferView" : 0,
            "componentType" : 5126,
            "count" : 3431,
            "max" : [
                0.43236592411994934,
                0.1710038185119629,
                0.3801197111606598
            ],
            "min" : [
                -0.30500736832618713,
                -0.5331581830978394,
                -0.4485141336917877
            ],
            "type" : "VEC3"
        },
        {
            "bufferView" : 1,
            "componentType" : 5126,
            "count" : 3431,
            "type" : "VEC3"
        },
        {
            "bufferView" : 2,
            "componentType" : 5126,
            "count" : 3431,
            "type" : "VEC2"
        },
        {
            "bufferView" : 3,
            "componentType" : 5123,
            "count" : 18432,
            "type" : "SCALAR"
        }
    ],
    "bufferViews" : [
        {
            "buffer" : 0,
            "byteLength" : 41172,
            "byteOffset" : 0
        },
        {
            "buffer" : 0,
            "byteLength" : 41172,
            "byteOffset" : 41172
        },
        {
            "buffer" : 0,
            "byteLength" : 27448,
            "byteOffset" : 82344
        },
        {
            "buffer" : 0,
            "byteLength" : 36864,
            "byteOffset" : 109792
        }
    ],
    "samplers" : [
        {
            "magFilter" : 9729,
            "minFilter" : 9987
        }
    ],
    "buffers" : [
        {
            "byteLength" : 146656,
            "uri" : "ground.bin"
        }
    ]
}
