{
    "asset" : {
        "generator" : "Khronos glTF Blender I/O v1.6.16",
        "version" : "2.0"
    },
    "scene" : 0,
    "scenes" : [
        {
            "name" : "Scene",
            "nodes" : [
                3
            ]
        }
    ],
    "nodes" : [
        {
            "mesh" : 0,
            "name" : "Pattern2D_4569499",
            "rotation" : [
                0.7071068286895752,
                0,
                0,
                0.7071067094802856
            ],
            "scale" : [
                0.009999999776482582,
                0.009999999776482582,
                0.009999999776482582
            ],
            "translation" : [
                0,
                -1.2140403985977173,
                0
            ]
        },
        {
            "mesh" : 1,
            "name" : "Pattern2D_4569499.001",
            "rotation" : [
                0.7071068286895752,
                0,
                0,
                0.7071067094802856
            ],
            "scale" : [
                0.009999999776482582,
                0.009999999776482582,
                0.009999999776482582
            ],
            "translation" : [
                0,
                -1.2140403985977173,
                0
            ]
        },
        {
            "mesh" : 2,
            "name" : "Pattern2D_95440.001",
            "rotation" : [
                0.7071068286895752,
                0,
                0,
                0.7071067094802856
            ],
            "scale" : [
                0.009999999776482582,
                0.009999999776482582,
                0.009999999776482582
            ],
            "translation" : [
                0,
                -1.2140403985977173,
                0
            ]
        },
        {
            "children" : [
                0,
                1,
                2
            ],
            "name" : "Kimono",
            "rotation" : [
                0,
                -0.003813007613644004,
                0,
                0.9999927282333374
            ],
            "scale" : [
                6.681685924530029,
                6.681685924530029,
                6.681685924530029
            ],
            "translation" : [
                -0.0020461082458496094,
                -0.7592082023620605,
                0.020599782466888428
            ]
        }
    ],
    "materials" : [
        {
            "doubleSided" : true,
            "name" : "BAJU GLB",
            "pbrMetallicRoughness" : {
                "baseColorFactor" : [
                    0.06539566814899445,
                    0.027412984520196915,
                    0.01805386319756508,
                    1
                ],
                "metallicFactor" : 0
            }
        }
    ],
    "meshes" : [
        {
            "name" : "Pattern2D_4569499",
            "primitives" : [
                {
                    "attributes" : {
                        "POSITION" : 0,
                        "NORMAL" : 1,
                        "TEXCOORD_0" : 2,
                        "TEXCOORD_1" : 3
                    },
                    "indices" : 4,
                    "material" : 0
                }
            ]
        },
        {
            "name" : "Pattern2D_4569499.001",
            "primitives" : [
                {
                    "attributes" : {
                        "POSITION" : 5,
                        "NORMAL" : 6,
                        "TEXCOORD_0" : 7
                    },
                    "indices" : 8,
                    "material" : 0
                }
            ]
        },
        {
            "name" : "Pattern2D_95440.001",
            "primitives" : [
                {
                    "attributes" : {
                        "POSITION" : 9,
                        "NORMAL" : 10,
                        "TEXCOORD_0" : 11
                    },
                    "indices" : 12,
                    "material" : 0
                }
            ]
        }
    ],
    "accessors" : [
        {
            "bufferView" : 0,
            "componentType" : 5126,
            "count" : 13161,
            "max" : [
                43.84600830078125,
                8.462970733642578,
                -92.32685089111328
            ],
            "min" : [
                -43.924041748046875,
                -23.177749633789062,
                -166.73558044433594
            ],
            "type" : "VEC3"
        },
        {
            "bufferView" : 1,
            "componentType" : 5126,
            "count" : 13161,
            "type" : "VEC3"
        },
        {
            "bufferView" : 2,
            "componentType" : 5126,
            "count" : 13161,
            "type" : "VEC2"
        },
        {
            "bufferView" : 3,
            "componentType" : 5126,
            "count" : 13161,
            "type" : "VEC2"
        },
        {
            "bufferView" : 4,
            "componentType" : 5123,
            "count" : 70368,
            "type" : "SCALAR"
        },
        {
            "bufferView" : 5,
            "componentType" : 5126,
            "count" : 2732,
            "max" : [
                46.02178192138672,
                -0.5460777282714844,
                -121.70823669433594
            ],
            "min" : [
                -46.075462341308594,
                -11.508028030395508,
                -135.4528350830078
            ],
            "type" : "VEC3"
        },
        {
            "bufferView" : 6,
            "componentType" : 5126,
            "count" : 2732,
            "type" : "VEC3"
        },
        {
            "bufferView" : 7,
            "componentType" : 5126,
            "count" : 2732,
            "type" : "VEC2"
        },
        {
            "bufferView" : 8,
            "componentType" : 5123,
            "count" : 13272,
            "type" : "SCALAR"
        },
        {
            "bufferView" : 9,
            "componentType" : 5126,
            "count" : 5144,
            "max" : [
                13.538863182067871,
                8.826847076416016,
                -98.3818588256836
            ],
            "min" : [
                -13.113879203796387,
                -14.592164993286133,
                -168.0900115966797
            ],
            "type" : "VEC3"
        },
        {
            "bufferView" : 10,
            "componentType" : 5126,
            "count" : 5144,
            "type" : "VEC3"
        },
        {
            "bufferView" : 11,
            "componentType" : 5126,
            "count" : 5144,
            "type" : "VEC2"
        },
        {
            "bufferView" : 12,
            "componentType" : 5123,
            "count" : 24576,
            "type" : "SCALAR"
        }
    ],
    "bufferViews" : [
        {
            "buffer" : 0,
            "byteLength" : 157932,
            "byteOffset" : 0
        },
        {
            "buffer" : 0,
            "byteLength" : 157932,
            "byteOffset" : 157932
        },
        {
            "buffer" : 0,
            "byteLength" : 105288,
            "byteOffset" : 315864
        },
        {
            "buffer" : 0,
            "byteLength" : 105288,
            "byteOffset" : 421152
        },
        {
            "buffer" : 0,
            "byteLength" : 140736,
            "byteOffset" : 526440
        },
        {
            "buffer" : 0,
            "byteLength" : 32784,
            "byteOffset" : 667176
        },
        {
            "buffer" : 0,
            "byteLength" : 32784,
            "byteOffset" : 699960
        },
        {
            "buffer" : 0,
            "byteLength" : 21856,
            "byteOffset" : 732744
        },
        {
            "buffer" : 0,
            "byteLength" : 26544,
            "byteOffset" : 754600
        },
        {
            "buffer" : 0,
            "byteLength" : 61728,
            "byteOffset" : 781144
        },
        {
            "buffer" : 0,
            "byteLength" : 61728,
            "byteOffset" : 842872
        },
        {
            "buffer" : 0,
            "byteLength" : 41152,
            "byteOffset" : 904600
        },
        {
            "buffer" : 0,
            "byteLength" : 49152,
            "byteOffset" : 945752
        }
    ],
    "buffers" : [
        {
            "byteLength" : 994904,
            "uri" : "outer.bin"
        }
    ]
}
