{
    "asset" : {
        "generator" : "Khronos glTF Blender I/O v1.6.16",
        "version" : "2.0"
    },
    "scene" : 0,
    "scenes" : [
        {
            "name" : "Scene",
            "nodes" : [
                0,
                1,
                2,
                3,
                4,
                5,
                6,
                7,
                8
            ]
        }
    ],
    "nodes" : [
        {
            "mesh" : 0,
            "name" : "Circle.001",
            "scale" : [
                8.711575508117676,
                8.711575508117676,
                8.711575508117676
            ],
            "translation" : [
                0.015964612364768982,
                1.5616155862808228,
                -76.75466918945312
            ]
        },
        {
            "mesh" : 1,
            "name" : "Circle.006",
            "scale" : [
                22.534412384033203,
                12.032320022583008,
                22.534412384033203
            ],
            "translation" : [
                0,
                0,
                0.7999972701072693
            ]
        },
        {
            "mesh" : 2,
            "name" : "Circle.010",
            "scale" : [
                1.5588054656982422,
                1.5588054656982422,
                1.5588054656982422
            ],
            "translation" : [
                5.645023345947266,
                1.663345217704773,
                -53.69965362548828
            ]
        },
        {
            "mesh" : 3,
            "name" : "Circle.011",
            "scale" : [
                1.442929983139038,
                1.442929983139038,
                1.442929983139038
            ],
            "translation" : [
                -4.938131809234619,
                1.6683357954025269,
                -61.83523178100586
            ]
        },
        {
            "mesh" : 4,
            "name" : "Circle.012",
            "scale" : [
                1.6595419645309448,
                1.6595419645309448,
                1.6595419645309448
            ],
            "translation" : [
                -5.687283515930176,
                1.6590067148208618,
                -42.77236557006836
            ]
        },
        {
            "mesh" : 5,
            "name" : "Circle.013",
            "scale" : [
                1.7299143075942993,
                1.7299143075942993,
                1.7299143075942993
            ],
            "translation" : [
                6.258939743041992,
                1.6559758186340332,
                -29.869430541992188
            ]
        },
        {
            "mesh" : 6,
            "name" : "Cube.003",
            "scale" : [
                1.8947560787200928,
                0.33344340324401855,
                50.79635238647461
            ],
            "translation" : [
                0.015964612364768982,
                1.6925445795059204,
                -46.79924011230469
            ]
        },
        {
            "mesh" : 7,
            "name" : "Plane.001",
            "scale" : [
                26.29722023010254,
                26.29722023010254,
                -47.2042121887207
            ],
            "translation" : [
                0.015964612364768982,
                1.7031335830688477,
                -55.13880920410156
            ]
        },
        {
            "mesh" : 8,
            "name" : "Circle.007",
            "rotation" : [
                0,
                0.7071068286895752,
                -0.7071068286895752,
                -1.1520232590100932e-07
            ],
            "scale" : [
                1.1601731777191162,
                0.3590964078903198,
                1.1601731777191162
            ],
            "translation" : [
                0.16247530281543732,
                3.569223403930664,
                -15.558979988098145
            ]
        }
    ],
    "materials" : [
        {
            "doubleSided" : true,
            "name" : "Material.008",
            "pbrMetallicRoughness" : {
                "baseColorTexture" : {
                    "index" : 0
                },
                "metallicFactor" : 0,
                "roughnessFactor" : 0.5
            }
        },
        {
            "doubleSided" : true,
            "name" : "batu hitam",
            "pbrMetallicRoughness" : {
                "baseColorTexture" : {
                    "index" : 1
                },
                "metallicFactor" : 0,
                "roughnessFactor" : 0.5
            }
        },
        {
            "doubleSided" : true,
            "name" : "jalan hitam",
            "pbrMetallicRoughness" : {
                "baseColorTexture" : {
                    "index" : 2
                },
                "metallicFactor" : 0,
                "roughnessFactor" : 0.5
            }
        }
    ],
    "meshes" : [
        {
            "name" : "Circle.001",
            "primitives" : [
                {
                    "attributes" : {
                        "POSITION" : 0,
                        "NORMAL" : 1,
                        "TEXCOORD_0" : 2
                    },
                    "indices" : 3,
                    "material" : 0
                }
            ]
        },
        {
            "name" : "Circle.006",
            "primitives" : [
                {
                    "attributes" : {
                        "POSITION" : 4,
                        "NORMAL" : 5,
                        "TEXCOORD_0" : 6,
                        "TEXCOORD_1" : 7
                    },
                    "indices" : 8,
                    "material" : 1
                }
            ]
        },
        {
            "name" : "Circle.011",
            "primitives" : [
                {
                    "attributes" : {
                        "POSITION" : 9,
                        "NORMAL" : 10,
                        "TEXCOORD_0" : 11
                    },
                    "indices" : 12,
                    "material" : 1
                }
            ]
        },
        {
            "name" : "Circle.012",
            "primitives" : [
                {
                    "attributes" : {
                        "POSITION" : 13,
                        "NORMAL" : 14,
                        "TEXCOORD_0" : 15
                    },
                    "indices" : 12,
                    "material" : 1
                }
            ]
        },
        {
            "name" : "Circle.013",
            "primitives" : [
                {
                    "attributes" : {
                        "POSITION" : 16,
                        "NORMAL" : 17,
                        "TEXCOORD_0" : 18
                    },
                    "indices" : 12,
                    "material" : 1
                }
            ]
        },
        {
            "name" : "Circle.014",
            "primitives" : [
                {
                    "attributes" : {
                        "POSITION" : 19,
                        "NORMAL" : 20,
                        "TEXCOORD_0" : 21
                    },
                    "indices" : 12,
                    "material" : 1
                }
            ]
        },
        {
            "name" : "Cube.005",
            "primitives" : [
                {
                    "attributes" : {
                        "POSITION" : 22,
                        "NORMAL" : 23,
                        "TEXCOORD_0" : 24,
                        "TEXCOORD_1" : 25
                    },
                    "indices" : 26,
                    "material" : 2
                }
            ]
        },
        {
            "name" : "Plane.003",
            "primitives" : [
                {
                    "attributes" : {
                        "POSITION" : 27,
                        "NORMAL" : 28,
                        "TEXCOORD_0" : 29,
                        "TEXCOORD_1" : 30
                    },
                    "indices" : 31,
                    "material" : 1
                }
            ]
        },
        {
            "name" : "Circle.009",
            "primitives" : [
                {
                    "attributes" : {
                        "POSITION" : 32,
                        "NORMAL" : 33,
                        "TEXCOORD_0" : 34
                    },
                    "indices" : 35,
                    "material" : 1
                }
            ]
        }
    ],
    "textures" : [
        {
            "sampler" : 0,
            "source" : 0
        },
        {
            "sampler" : 0,
            "source" : 0
        },
        {
            "sampler" : 0,
            "source" : 1
        }
    ],
    "images" : [
        {
            "mimeType" : "image/jpeg",
            "name" : "black-cracked-marble-floor-tile-texture-2021-09-04-10-29-57-utc",
            "uri" : "texture/black-cracked-marble-floor-tile-texture-2021-09-04-10-29-57-utc.jpg"
        },
        {
            "mimeType" : "image/jpeg",
            "name" : "black-or-dark-gray-wall-background-with-roughcast-2021-09-23-17",
            "uri" : "texture/black-or-dark-gray-wall-background-with-roughcast-2021-09-23-17.jpg"
        }
    ],
    "accessors" : [
        {
            "bufferView" : 0,
            "componentType" : 5126,
            "count" : 160,
            "max" : [
                1,
                0.08124728500843048,
                1
            ],
            "min" : [
                -1,
                0,
                -1.7617197036743164
            ],
            "type" : "VEC3"
        },
        {
            "bufferView" : 1,
            "componentType" : 5126,
            "count" : 160,
            "type" : "VEC3"
        },
        {
            "bufferView" : 2,
            "componentType" : 5126,
            "count" : 160,
            "type" : "VEC2"
        },
        {
            "bufferView" : 3,
            "componentType" : 5123,
            "count" : 282,
            "type" : "SCALAR"
        },
        {
            "bufferView" : 4,
            "componentType" : 5126,
            "count" : 204800,
            "max" : [
                1.3014817237854004,
                1.6641470193862915,
                -0.6006172895431519
            ],
            "min" : [
                -1.277956247329712,
                -0.3589950501918793,
                -4.068984031677246
            ],
            "type" : "VEC3"
        },
        {
            "bufferView" : 5,
            "componentType" : 5126,
            "count" : 204800,
            "type" : "VEC3"
        },
        {
            "bufferView" : 6,
            "componentType" : 5126,
            "count" : 204800,
            "type" : "VEC2"
        },
        {
            "bufferView" : 7,
            "componentType" : 5126,
            "count" : 204800,
            "type" : "VEC2"
        },
        {
            "bufferView" : 8,
            "componentType" : 5125,
            "count" : 307200,
            "type" : "SCALAR"
        },
        {
            "bufferView" : 9,
            "componentType" : 5126,
            "count" : 160,
            "max" : [
                1,
                0.18863344192504883,
                1
            ],
            "min" : [
                -1,
                0,
                -1
            ],
            "type" : "VEC3"
        },
        {
            "bufferView" : 10,
            "componentType" : 5126,
            "count" : 160,
            "type" : "VEC3"
        },
        {
            "bufferView" : 11,
            "componentType" : 5126,
            "count" : 160,
            "type" : "VEC2"
        },
        {
            "bufferView" : 12,
            "componentType" : 5123,
            "count" : 282,
            "type" : "SCALAR"
        },
        {
            "bufferView" : 13,
            "componentType" : 5126,
            "count" : 160,
            "max" : [
                1,
                0.18863344192504883,
                1
            ],
            "min" : [
                -1,
                0,
                -1
            ],
            "type" : "VEC3"
        },
        {
            "bufferView" : 14,
            "componentType" : 5126,
            "count" : 160,
            "type" : "VEC3"
        },
        {
            "bufferView" : 15,
            "componentType" : 5126,
            "count" : 160,
            "type" : "VEC2"
        },
        {
            "bufferView" : 16,
            "componentType" : 5126,
            "count" : 160,
            "max" : [
                1,
                0.18863344192504883,
                1
            ],
            "min" : [
                -1,
                0,
                -1
            ],
            "type" : "VEC3"
        },
        {
            "bufferView" : 17,
            "componentType" : 5126,
            "count" : 160,
            "type" : "VEC3"
        },
        {
            "bufferView" : 18,
            "componentType" : 5126,
            "count" : 160,
            "type" : "VEC2"
        },
        {
            "bufferView" : 19,
            "componentType" : 5126,
            "count" : 160,
            "max" : [
                1,
                0.18863344192504883,
                1
            ],
            "min" : [
                -1,
                0,
                -1
            ],
            "type" : "VEC3"
        },
        {
            "bufferView" : 20,
            "componentType" : 5126,
            "count" : 160,
            "type" : "VEC3"
        },
        {
            "bufferView" : 21,
            "componentType" : 5126,
            "count" : 160,
            "type" : "VEC2"
        },
        {
            "bufferView" : 22,
            "componentType" : 5126,
            "count" : 1506,
            "max" : [
                1.0000001192092896,
                1.0000001192092896,
                0.7845274806022644
            ],
            "min" : [
                -1.0000001192092896,
                -1.0000001192092896,
                -1.0000001192092896
            ],
            "type" : "VEC3"
        },
        {
            "bufferView" : 23,
            "componentType" : 5126,
            "count" : 1506,
            "type" : "VEC3"
        },
        {
            "bufferView" : 24,
            "componentType" : 5126,
            "count" : 1506,
            "type" : "VEC2"
        },
        {
            "bufferView" : 25,
            "componentType" : 5126,
            "count" : 1506,
            "type" : "VEC2"
        },
        {
            "bufferView" : 26,
            "componentType" : 5123,
            "count" : 2304,
            "type" : "SCALAR"
        },
        {
            "bufferView" : 27,
            "componentType" : 5126,
            "count" : 4,
            "max" : [
                1,
                0,
                1
            ],
            "min" : [
                -1,
                0,
                -1
            ],
            "type" : "VEC3"
        },
        {
            "bufferView" : 28,
            "componentType" : 5126,
            "count" : 4,
            "type" : "VEC3"
        },
        {
            "bufferView" : 29,
            "componentType" : 5126,
            "count" : 4,
            "type" : "VEC2"
        },
        {
            "bufferView" : 30,
            "componentType" : 5126,
            "count" : 4,
            "type" : "VEC2"
        },
        {
            "bufferView" : 31,
            "componentType" : 5123,
            "count" : 6,
            "type" : "SCALAR"
        },
        {
            "bufferView" : 32,
            "componentType" : 5126,
            "count" : 216,
            "max" : [
                2.52398681640625,
                1.6887972833501408e-06,
                2.5273025035858154
            ],
            "min" : [
                -2.220487594604492,
                -4.652705669403076,
                -1.8697140216827393
            ],
            "type" : "VEC3"
        },
        {
            "bufferView" : 33,
            "componentType" : 5126,
            "count" : 216,
            "type" : "VEC3"
        },
        {
            "bufferView" : 34,
            "componentType" : 5126,
            "count" : 216,
            "type" : "VEC2"
        },
        {
            "bufferView" : 35,
            "componentType" : 5123,
            "count" : 324,
            "type" : "SCALAR"
        }
    ],
    "bufferViews" : [
        {
            "buffer" : 0,
            "byteLength" : 1920,
            "byteOffset" : 0
        },
        {
            "buffer" : 0,
            "byteLength" : 1920,
            "byteOffset" : 1920
        },
        {
            "buffer" : 0,
            "byteLength" : 1280,
            "byteOffset" : 3840
        },
        {
            "buffer" : 0,
            "byteLength" : 564,
            "byteOffset" : 5120
        },
        {
            "buffer" : 0,
            "byteLength" : 2457600,
            "byteOffset" : 5684
        },
        {
            "buffer" : 0,
            "byteLength" : 2457600,
            "byteOffset" : 2463284
        },
        {
            "buffer" : 0,
            "byteLength" : 1638400,
            "byteOffset" : 4920884
        },
        {
            "buffer" : 0,
            "byteLength" : 1638400,
            "byteOffset" : 6559284
        },
        {
            "buffer" : 0,
            "byteLength" : 1228800,
            "byteOffset" : 8197684
        },
        {
            "buffer" : 0,
            "byteLength" : 1920,
            "byteOffset" : 9426484
        },
        {
            "buffer" : 0,
            "byteLength" : 1920,
            "byteOffset" : 9428404
        },
        {
            "buffer" : 0,
            "byteLength" : 1280,
            "byteOffset" : 9430324
        },
        {
            "buffer" : 0,
            "byteLength" : 564,
            "byteOffset" : 9431604
        },
        {
            "buffer" : 0,
            "byteLength" : 1920,
            "byteOffset" : 9432168
        },
        {
            "buffer" : 0,
            "byteLength" : 1920,
            "byteOffset" : 9434088
        },
        {
            "buffer" : 0,
            "byteLength" : 1280,
            "byteOffset" : 9436008
        },
        {
            "buffer" : 0,
            "byteLength" : 1920,
            "byteOffset" : 9437288
        },
        {
            "buffer" : 0,
            "byteLength" : 1920,
            "byteOffset" : 9439208
        },
        {
            "buffer" : 0,
            "byteLength" : 1280,
            "byteOffset" : 9441128
        },
        {
            "buffer" : 0,
            "byteLength" : 1920,
            "byteOffset" : 9442408
        },
        {
            "buffer" : 0,
            "byteLength" : 1920,
            "byteOffset" : 9444328
        },
        {
            "buffer" : 0,
            "byteLength" : 1280,
            "byteOffset" : 9446248
        },
        {
            "buffer" : 0,
            "byteLength" : 18072,
            "byteOffset" : 9447528
        },
        {
            "buffer" : 0,
            "byteLength" : 18072,
            "byteOffset" : 9465600
        },
        {
            "buffer" : 0,
            "byteLength" : 12048,
            "byteOffset" : 9483672
        },
        {
            "buffer" : 0,
            "byteLength" : 12048,
            "byteOffset" : 9495720
        },
        {
            "buffer" : 0,
            "byteLength" : 4608,
            "byteOffset" : 9507768
        },
        {
            "buffer" : 0,
            "byteLength" : 48,
            "byteOffset" : 9512376
        },
        {
            "buffer" : 0,
            "byteLength" : 48,
            "byteOffset" : 9512424
        },
        {
            "buffer" : 0,
            "byteLength" : 32,
            "byteOffset" : 9512472
        },
        {
            "buffer" : 0,
            "byteLength" : 32,
            "byteOffset" : 9512504
        },
        {
            "buffer" : 0,
            "byteLength" : 12,
            "byteOffset" : 9512536
        },
        {
            "buffer" : 0,
            "byteLength" : 2592,
            "byteOffset" : 9512548
        },
        {
            "buffer" : 0,
            "byteLength" : 2592,
            "byteOffset" : 9515140
        },
        {
            "buffer" : 0,
            "byteLength" : 1728,
            "byteOffset" : 9517732
        },
        {
            "buffer" : 0,
            "byteLength" : 648,
            "byteOffset" : 9519460
        }
    ],
    "samplers" : [
        {
            "magFilter" : 9729,
            "minFilter" : 9987
        }
    ],
    "buffers" : [
        {
            "byteLength" : 9520108,
            "uri" : "phase1a.bin"
        }
    ]
}
