{
  "accessors": [
    {
      "bufferView": 2,
      "componentType": 5126,
      "count": 46457,
      "max": [
        0.50014501810073853,
        0.50017702579498291,
        0.11287099868059158
      ],
      "min": [
        -0.5002710223197937,
        -0.50021499395370483,
        -0.078846000134944916
      ],
      "type": "VEC3"
    },
    {
      "bufferView": 2,
      "byteOffset": 557484,
      "componentType": 5126,
      "count": 46457,
      "max": [
        0.99994826316833496,
        0.99999994039535522,
        0.99999493360519409
      ],
      "min": [
        -0.99999934434890747,
        -0.99998241662979126,
        -0.99974977970123291
      ],
      "type": "VEC3"
    },
    {
      "bufferView": 3,
      "componentType": 5126,
      "count": 46457,
      "max": [
        1,
        0.99981105327606201,
        0.99906802177429199,
        1
      ],
      "min": [
        -0.99390506744384766,
        -0.99807220697402954,
        -0.99633795022964478,
        -1
      ],
      "type": "VEC4"
    },
    {
      "bufferView": 1,
      "componentType": 5126,
      "count": 46457,
      "max": [
        1.0000959634780884,
        1.0005719661712646
      ],
      "min": [
        -0.00037299998803064227,
        -0.0011690000537782907
      ],
      "type": "VEC2"
    },
    {
      "bufferView": 0,
      "componentType": 5125,
      "count": 264651,
      "max": [
        46456
      ],
      "min": [
        0
      ],
      "type": "SCALAR"
    }
  ],
  "asset": {
    "extras": {
      "author": "Rispat Momit (https://sketchfab.com/rispatmomit)",
      "license": "CC-BY-SA-4.0 (http://creativecommons.org/licenses/by-sa/4.0/)",
      "source": "https://sketchfab.com/models/95f42cb8b19441138c49ddc34d1f29f0",
      "title": "Mars Landscape 3"
    },
    "generator": "Sketchfab-3.20.7",
    "version": "2.0"
  },
  "bufferViews": [
    {
      "buffer": 0,
      "byteLength": 1058604,
      "byteOffset": 0,
      "name": "floatBufferViews",
      "target": 34963
    },
    {
      "buffer": 0,
      "byteLength": 371656,
      "byteOffset": 1058604,
      "byteStride": 8,
      "name": "floatBufferViews",
      "target": 34962
    },
    {
      "buffer": 0,
      "byteLength": 1114968,
      "byteOffset": 1430260,
      "byteStride": 12,
      "name": "floatBufferViews",
      "target": 34962
    },
    {
      "buffer": 0,
      "byteLength": 743312,
      "byteOffset": 2545228,
      "byteStride": 16,
      "name": "floatBufferViews",
      "target": 34962
    }
  ],
  "buffers": [
    {
      "byteLength": 3288540,
      "uri": "scene.bin"
    }
  ],
  "images": [
    {
      "uri": "textures/None_metallicRoughness.png"
    },
    {
      "uri": "textures/None_baseColor.png"
    }
  ],
  "materials": [
    {
      "doubleSided": true,
      "emissiveFactor": [
        0,
        0,
        0
      ],
      "name": "None",
      "occlusionTexture": {
        "index": 0,
        "strength": 1,
        "texCoord": 0
      },
      "pbrMetallicRoughness": {
        "baseColorFactor": [
          1,
          1,
          1,
          1
        ],
        "baseColorTexture": {
          "index": 1,
          "texCoord": 0
        },
        "metallicFactor": 0,
        "metallicRoughnessTexture": {
          "index": 0,
          "texCoord": 0
        },
        "roughnessFactor": 1
      }
    }
  ],
  "meshes": [
    {
      "primitives": [
        {
          "attributes": {
            "NORMAL": 1,
            "POSITION": 0,
            "TANGENT": 2,
            "TEXCOORD_0": 3
          },
          "indices": 4,
          "material": 0,
          "mode": 4
        }
      ]
    }
  ],
  "nodes": [
    {
      "children": [
        1
      ],
      "name": "RootNode (gltf orientation matrix)",
      "rotation": [
        -0.70710678118654746,
        -0,
        -0,
        0.70710678118654757
      ]
    },
    {
      "children": [
        2
      ],
      "name": "RootNode (model correction matrix)"
    },
    {
      "children": [
        3
      ],
      "name": "Mars Land2_1.obj.cleaner.materialmerger.gles"
    },
    {
      "mesh": 0,
      "name": ""
    }
  ],
  "samplers": [
    {
      "magFilter": 9729,
      "minFilter": 9987,
      "wrapS": 10497,
      "wrapT": 10497
    }
  ],
  "scene": 0,
  "scenes": [
    {
      "name": "OSG_Scene",
      "nodes": [
        0
      ]
    }
  ],
  "textures": [
    {
      "sampler": 0,
      "source": 0
    },
    {
      "sampler": 0,
      "source": 1
    }
  ]
}

