{
    "asset" : {
        "generator" : "Khronos glTF Blender I/O v1.6.16",
        "version" : "2.0"
    },
    "scene" : 0,
    "scenes" : [
        {
            "name" : "Scene",
            "nodes" : [
                0,
                1
            ]
        }
    ],
    "nodes" : [
        {
            "mesh" : 0,
            "name" : "Text",
            "rotation" : [
                0.7071068286895752,
                0,
                0,
                0.7071068286895752
            ],
            "scale" : [
                1.5809003114700317,
                1.5809003114700317,
                1.5809003114700317
            ]
        },
        {
            "name" : "Circle",
            "scale" : [
                5.274712562561035,
                5.274712562561035,
                5.274712562561035
            ]
        }
    ],
    "materials" : [
        {
            "doubleSided" : true,
            "emissiveFactor" : [
                1,
                1,
                1
            ],
            "name" : "Material.001",
            "pbrMetallicRoughness" : {}
        }
    ],
    "meshes" : [
        {
            "name" : "Text",
            "primitives" : [
                {
                    "attributes" : {
                        "POSITION" : 0,
                        "NORMAL" : 1,
                        "TEXCOORD_0" : 2
                    },
                    "indices" : 3,
                    "material" : 0
                }
            ]
        }
    ],
    "accessors" : [
        {
            "bufferView" : 0,
            "componentType" : 5126,
            "count" : 1922,
            "max" : [
                -0.15961050987243652,
                0.14475573599338531,
                0.009000116027891636
            ],
            "min" : [
                -2.4459362030029297,
                -2.4394845962524414,
                -0.6910000443458557
            ],
            "type" : "VEC3"
        },
        {
            "bufferView" : 1,
            "componentType" : 5126,
            "count" : 1922,
            "type" : "VEC3"
        },
        {
            "bufferView" : 2,
            "componentType" : 5126,
            "count" : 1922,
            "type" : "VEC2"
        },
        {
            "bufferView" : 3,
            "componentType" : 5123,
            "count" : 5208,
            "type" : "SCALAR"
        }
    ],
    "bufferViews" : [
        {
            "buffer" : 0,
            "byteLength" : 23064,
            "byteOffset" : 0
        },
        {
            "buffer" : 0,
            "byteLength" : 23064,
            "byteOffset" : 23064
        },
        {
            "buffer" : 0,
            "byteLength" : 15376,
            "byteOffset" : 46128
        },
        {
            "buffer" : 0,
            "byteLength" : 10416,
            "byteOffset" : 61504
        }
    ],
    "buffers" : [
        {
            "byteLength" : 71920,
            "uri" : "cuboid.bin"
        }
    ]
}
