{
    "asset" : {
        "generator" : "Khronos glTF Blender I/O v1.6.16",
        "version" : "2.0"
    },
    "scene" : 0,
    "scenes" : [
        {
            "name" : "Scene",
            "nodes" : [
                0,
                1,
                2,
                3,
                4,
                5,
                6
            ]
        }
    ],
    "nodes" : [
        {
            "mesh" : 0,
            "name" : "Circle.007",
            "rotation" : [
                0,
                0.7071068286895752,
                -0.7071068286895752,
                -1.1520232590100932e-07
            ],
            "scale" : [
                1.1601731777191162,
                0.3590964078903198,
                1.1601731777191162
            ],
            "translation" : [
                0.16247530281543732,
                3.6437723636627197,
                -15.731853485107422
            ]
        },
        {
            "mesh" : 1,
            "name" : "Plane",
            "rotation" : [
                0.7071068286895752,
                0,
                0,
                0.7071068286895752
            ],
            "scale" : [
                21.172504425048828,
                1,
                -9.86835765838623
            ],
            "translation" : [
                -0.09979629516601562,
                10.325851440429688,
                -14.876626968383789
            ]
        },
        {
            "mesh" : 2,
            "name" : "Circle.006",
            "scale" : [
                22.534412384033203,
                12.032320022583008,
                22.534412384033203
            ],
            "translation" : [
                0,
                0,
                0.7999972701072693
            ]
        },
        {
            "mesh" : 3,
            "name" : "Cube.003",
            "scale" : [
                1.8947560787200928,
                0.33344340324401855,
                50.79635238647461
            ],
            "translation" : [
                0.015964612364768982,
                1.541643738746643,
                -46.79924011230469
            ]
        },
        {
            "mesh" : 4,
            "name" : "Plane.001",
            "scale" : [
                26.29722023010254,
                26.29722023010254,
                -47.2042121887207
            ],
            "translation" : [
                0.015964612364768982,
                1.7031335830688477,
                -55.13880920410156
            ]
        },
        {
            "name" : "Shoes",
            "rotation" : [
                0.5477803349494934,
                0.3834463059902191,
                0,
                0.7435762286186218
            ],
            "scale" : [
                0.5357949137687683,
                0.5357949137687683,
                0.5357949137687683
            ],
            "translation" : [
                -6.351342678070068,
                5.495176315307617,
                -35.29228591918945
            ]
        },
        {
            "mesh" : 5,
            "name" : "Cylinder",
            "scale" : [
                8.792080879211426,
                0.27609217166900635,
                8.792080879211426
            ],
            "translation" : [
                0,
                1.919360876083374,
                -76.87507629394531
            ]
        }
    ],
    "materials" : [
        {
            "doubleSided" : true,
            "name" : "Material.001",
            "pbrMetallicRoughness" : {
                "baseColorFactor" : [
                    0.2529570162296295,
                    0.14520300924777985,
                    0.03705274313688278,
                    1
                ],
                "roughnessFactor" : 0.5
            }
        },
        {
            "doubleSided" : true,
            "name" : "Procedual Marble Granite Black Galaxy",
            "pbrMetallicRoughness" : {
                "baseColorTexture" : {
                    "index" : 0
                },
                "metallicRoughnessTexture" : {
                    "index" : 1
                }
            }
        },
        {
            "doubleSided" : true,
            "name" : "Procedual Marble Granite Black Galaxy.002",
            "pbrMetallicRoughness" : {
                "baseColorTexture" : {
                    "index" : 2
                },
                "metallicRoughnessTexture" : {
                    "index" : 3
                }
            }
        },
        {
            "doubleSided" : true,
            "name" : "Dark procedural tiles.003",
            "normalTexture" : {
                "index" : 4,
                "scale" : 0.20000000298023224
            },
            "pbrMetallicRoughness" : {
                "baseColorTexture" : {
                    "index" : 5
                },
                "metallicFactor" : 0.290909081697464,
                "roughnessFactor" : 0.8339483737945557
            }
        },
        {
            "doubleSided" : true,
            "name" : "Touched Plastic Smooth",
            "normalTexture" : {
                "index" : 6,
                "scale" : 3.3999998569488525
            },
            "pbrMetallicRoughness" : {
                "baseColorFactor" : [
                    0.013410553336143494,
                    0.013410553336143494,
                    0.013410553336143494,
                    1
                ],
                "metallicRoughnessTexture" : {
                    "index" : 7
                }
            }
        }
    ],
    "meshes" : [
        {
            "name" : "Circle.002",
            "primitives" : [
                {
                    "attributes" : {
                        "POSITION" : 0,
                        "NORMAL" : 1,
                        "TEXCOORD_0" : 2
                    },
                    "indices" : 3,
                    "material" : 0
                }
            ]
        },
        {
            "name" : "Plane.001",
            "primitives" : [
                {
                    "attributes" : {
                        "POSITION" : 4,
                        "NORMAL" : 5,
                        "TEXCOORD_0" : 6
                    },
                    "indices" : 7,
                    "material" : 1
                }
            ]
        },
        {
            "name" : "Circle.004",
            "primitives" : [
                {
                    "attributes" : {
                        "POSITION" : 8,
                        "NORMAL" : 9,
                        "TEXCOORD_0" : 10
                    },
                    "indices" : 11,
                    "material" : 2
                }
            ]
        },
        {
            "name" : "Cube.001",
            "primitives" : [
                {
                    "attributes" : {
                        "POSITION" : 12,
                        "NORMAL" : 13,
                        "TEXCOORD_0" : 14
                    },
                    "indices" : 15,
                    "material" : 3
                }
            ]
        },
        {
            "name" : "Plane.002",
            "primitives" : [
                {
                    "attributes" : {
                        "POSITION" : 16,
                        "NORMAL" : 17,
                        "TEXCOORD_0" : 18,
                        "TEXCOORD_1" : 19
                    },
                    "indices" : 20,
                    "material" : 1
                }
            ]
        },
        {
            "name" : "Cylinder",
            "primitives" : [
                {
                    "attributes" : {
                        "POSITION" : 21,
                        "NORMAL" : 22,
                        "TEXCOORD_0" : 23
                    },
                    "indices" : 24,
                    "material" : 4
                }
            ]
        }
    ],
    "textures" : [
        {
            "sampler" : 0,
            "source" : 0
        },
        {
            "sampler" : 0,
            "source" : 1
        },
        {
            "sampler" : 0,
            "source" : 2
        },
        {
            "sampler" : 0,
            "source" : 3
        },
        {
            "sampler" : 0,
            "source" : 4
        },
        {
            "sampler" : 0,
            "source" : 5
        },
        {
            "sampler" : 0,
            "source" : 6
        },
        {
            "sampler" : 0,
            "source" : 7
        }
    ],
    "images" : [
        {
            "mimeType" : "image/png",
            "name" : "Floor_Marble_Diff",
            "uri" : "textures/Floor_Marble_Diff.png"
        },
        {
            "mimeType" : "image/png",
            "name" : "Floor_Marble_Emitt-Floor_MArblew_Rough",
            "uri" : "textures/Floor_Marble_Emitt-Floor_MArblew_Rough.png"
        },
        {
            "mimeType" : "image/png",
            "name" : "Wall_Marble_Diff",
            "uri" : "textures/Wall_Marble_Diff.png"
        },
        {
            "mimeType" : "image/png",
            "name" : "Wall_Marble_Metallic-Wall_Marble_Roughness",
            "uri" : "textures/Wall_Marble_Metallic-Wall_Marble_Roughness.png"
        },
        {
            "mimeType" : "image/png",
            "name" : "Runaway_Normal_Map",
            "uri" : "textures/Runaway_Normal_Map.png"
        },
        {
            "mimeType" : "image/png",
            "name" : "Runaway_Floor",
            "uri" : "textures/Runaway_Floor.png"
        },
        {
            "mimeType" : "image/png",
            "name" : "Level Normal",
            "uri" : "textures/Level%20Normal.png"
        },
        {
            "mimeType" : "image/png",
            "name" : "Level Rough",
            "uri" : "textures/Level%20Rough.png"
        }
    ],
    "accessors" : [
        {
            "bufferView" : 0,
            "componentType" : 5126,
            "count" : 342,
            "max" : [
                2.52398681640625,
                1.6887972833501408e-06,
                2.5273025035858154
            ],
            "min" : [
                -2.220487594604492,
                -4.652705669403076,
                -1.8697140216827393
            ],
            "type" : "VEC3"
        },
        {
            "bufferView" : 1,
            "componentType" : 5126,
            "count" : 342,
            "type" : "VEC3"
        },
        {
            "bufferView" : 2,
            "componentType" : 5126,
            "count" : 342,
            "type" : "VEC2"
        },
        {
            "bufferView" : 3,
            "componentType" : 5123,
            "count" : 444,
            "type" : "SCALAR"
        },
        {
            "bufferView" : 4,
            "componentType" : 5126,
            "count" : 193,
            "max" : [
                1,
                0.5608908534049988,
                1
            ],
            "min" : [
                -1,
                0,
                -1
            ],
            "type" : "VEC3"
        },
        {
            "bufferView" : 5,
            "componentType" : 5126,
            "count" : 193,
            "type" : "VEC3"
        },
        {
            "bufferView" : 6,
            "componentType" : 5126,
            "count" : 193,
            "type" : "VEC2"
        },
        {
            "bufferView" : 7,
            "componentType" : 5123,
            "count" : 252,
            "type" : "SCALAR"
        },
        {
            "bufferView" : 8,
            "componentType" : 5126,
            "count" : 54616,
            "max" : [
                1.3014817237854004,
                1.6641470193862915,
                -0.6006172895431519
            ],
            "min" : [
                -1.277956247329712,
                -0.3589950501918793,
                -4.068984031677246
            ],
            "type" : "VEC3"
        },
        {
            "bufferView" : 9,
            "componentType" : 5126,
            "count" : 54616,
            "type" : "VEC3"
        },
        {
            "bufferView" : 10,
            "componentType" : 5126,
            "count" : 54616,
            "type" : "VEC2"
        },
        {
            "bufferView" : 11,
            "componentType" : 5123,
            "count" : 307200,
            "type" : "SCALAR"
        },
        {
            "bufferView" : 12,
            "componentType" : 5126,
            "count" : 2241,
            "max" : [
                1.0000001192092896,
                1.0000001192092896,
                0.7845274806022644
            ],
            "min" : [
                -1.0000001192092896,
                -1.0000001192092896,
                -1.0000001192092896
            ],
            "type" : "VEC3"
        },
        {
            "bufferView" : 13,
            "componentType" : 5126,
            "count" : 2241,
            "type" : "VEC3"
        },
        {
            "bufferView" : 14,
            "componentType" : 5126,
            "count" : 2241,
            "type" : "VEC2"
        },
        {
            "bufferView" : 15,
            "componentType" : 5123,
            "count" : 2304,
            "type" : "SCALAR"
        },
        {
            "bufferView" : 16,
            "componentType" : 5126,
            "count" : 24,
            "max" : [
                1,
                0,
                1
            ],
            "min" : [
                -1,
                -0.036740660667419434,
                -1
            ],
            "type" : "VEC3"
        },
        {
            "bufferView" : 17,
            "componentType" : 5126,
            "count" : 24,
            "type" : "VEC3"
        },
        {
            "bufferView" : 18,
            "componentType" : 5126,
            "count" : 24,
            "type" : "VEC2"
        },
        {
            "bufferView" : 19,
            "componentType" : 5126,
            "count" : 24,
            "type" : "VEC2"
        },
        {
            "bufferView" : 20,
            "componentType" : 5123,
            "count" : 36,
            "type" : "SCALAR"
        },
        {
            "bufferView" : 21,
            "componentType" : 5126,
            "count" : 192,
            "max" : [
                1,
                1,
                1
            ],
            "min" : [
                -1,
                -1,
                -1.7241003513336182
            ],
            "type" : "VEC3"
        },
        {
            "bufferView" : 22,
            "componentType" : 5126,
            "count" : 192,
            "type" : "VEC3"
        },
        {
            "bufferView" : 23,
            "componentType" : 5126,
            "count" : 192,
            "type" : "VEC2"
        },
        {
            "bufferView" : 24,
            "componentType" : 5123,
            "count" : 372,
            "type" : "SCALAR"
        }
    ],
    "bufferViews" : [
        {
            "buffer" : 0,
            "byteLength" : 4104,
            "byteOffset" : 0
        },
        {
            "buffer" : 0,
            "byteLength" : 4104,
            "byteOffset" : 4104
        },
        {
            "buffer" : 0,
            "byteLength" : 2736,
            "byteOffset" : 8208
        },
        {
            "buffer" : 0,
            "byteLength" : 888,
            "byteOffset" : 10944
        },
        {
            "buffer" : 0,
            "byteLength" : 2316,
            "byteOffset" : 11832
        },
        {
            "buffer" : 0,
            "byteLength" : 2316,
            "byteOffset" : 14148
        },
        {
            "buffer" : 0,
            "byteLength" : 1544,
            "byteOffset" : 16464
        },
        {
            "buffer" : 0,
            "byteLength" : 504,
            "byteOffset" : 18008
        },
        {
            "buffer" : 0,
            "byteLength" : 655392,
            "byteOffset" : 18512
        },
        {
            "buffer" : 0,
            "byteLength" : 655392,
            "byteOffset" : 673904
        },
        {
            "buffer" : 0,
            "byteLength" : 436928,
            "byteOffset" : 1329296
        },
        {
            "buffer" : 0,
            "byteLength" : 614400,
            "byteOffset" : 1766224
        },
        {
            "buffer" : 0,
            "byteLength" : 26892,
            "byteOffset" : 2380624
        },
        {
            "buffer" : 0,
            "byteLength" : 26892,
            "byteOffset" : 2407516
        },
        {
            "buffer" : 0,
            "byteLength" : 17928,
            "byteOffset" : 2434408
        },
        {
            "buffer" : 0,
            "byteLength" : 4608,
            "byteOffset" : 2452336
        },
        {
            "buffer" : 0,
            "byteLength" : 288,
            "byteOffset" : 2456944
        },
        {
            "buffer" : 0,
            "byteLength" : 288,
            "byteOffset" : 2457232
        },
        {
            "buffer" : 0,
            "byteLength" : 192,
            "byteOffset" : 2457520
        },
        {
            "buffer" : 0,
            "byteLength" : 192,
            "byteOffset" : 2457712
        },
        {
            "buffer" : 0,
            "byteLength" : 72,
            "byteOffset" : 2457904
        },
        {
            "buffer" : 0,
            "byteLength" : 2304,
            "byteOffset" : 2457976
        },
        {
            "buffer" : 0,
            "byteLength" : 2304,
            "byteOffset" : 2460280
        },
        {
            "buffer" : 0,
            "byteLength" : 1536,
            "byteOffset" : 2462584
        },
        {
            "buffer" : 0,
            "byteLength" : 744,
            "byteOffset" : 2464120
        }
    ],
    "samplers" : [
        {
            "magFilter" : 9729,
            "minFilter" : 9987
        }
    ],
    "buffers" : [
        {
            "byteLength" : 2464864,
            "uri" : "phase2.bin"
        }
    ]
}
