{
    "asset" : {
        "generator" : "Khronos glTF Blender I/O v1.6.16",
        "version" : "2.0"
    },
    "scene" : 0,
    "scenes" : [
        {
            "name" : "Scene",
            "nodes" : [
                0
            ]
        }
    ],
    "nodes" : [
        {
            "mesh" : 0,
            "name" : "Cube.009",
            "scale" : [
                1.9153131246566772,
                1.9153131246566772,
                21.94124984741211
            ],
            "translation" : [
                0.02976522035896778,
                3.584120035171509,
                -113.40251159667969
            ]
        }
    ],
    "materials" : [
        {
            "doubleSided" : true,
            "name" : "Old Wall procedural",
            "normalTexture" : {
                "index" : 0
            },
            "pbrMetallicRoughness" : {
                "baseColorTexture" : {
                    "index" : 1
                },
                "metallicFactor" : 0,
                "roughnessFactor" : 0.7727272510528564
            }
        }
    ],
    "meshes" : [
        {
            "name" : "Cube.001",
            "primitives" : [
                {
                    "attributes" : {
                        "POSITION" : 0,
                        "NORMAL" : 1,
                        "TEXCOORD_0" : 2
                    },
                    "indices" : 3,
                    "material" : 0
                }
            ]
        }
    ],
    "textures" : [
        {
            "sampler" : 0,
            "source" : 0
        },
        {
            "sampler" : 1,
            "source" : 1
        }
    ],
    "images" : [
        {
            "mimeType" : "image/png",
            "name" : "Wall Norm",
            "uri" : "textures/Wall%20Norm.png"
        },
        {
            "mimeType" : "image/png",
            "name" : "Wall Diff",
            "uri" : "textures/Wall%20Diff.png"
        }
    ],
    "accessors" : [
        {
            "bufferView" : 0,
            "componentType" : 5126,
            "count" : 457421,
            "max" : [
                3.135867118835449,
                2.278076648712158,
                1.4080169200897217
            ],
            "min" : [
                -3.4280788898468018,
                -1.647265076637268,
                -1.000000238418579
            ],
            "type" : "VEC3"
        },
        {
            "bufferView" : 1,
            "componentType" : 5126,
            "count" : 457421,
            "type" : "VEC3"
        },
        {
            "bufferView" : 2,
            "componentType" : 5126,
            "count" : 457421,
            "type" : "VEC2"
        },
        {
            "bufferView" : 3,
            "componentType" : 5125,
            "count" : 1085184,
            "type" : "SCALAR"
        }
    ],
    "bufferViews" : [
        {
            "buffer" : 0,
            "byteLength" : 5489052,
            "byteOffset" : 0
        },
        {
            "buffer" : 0,
            "byteLength" : 5489052,
            "byteOffset" : 5489052
        },
        {
            "buffer" : 0,
            "byteLength" : 3659368,
            "byteOffset" : 10978104
        },
        {
            "buffer" : 0,
            "byteLength" : 4340736,
            "byteOffset" : 14637472
        }
    ],
    "samplers" : [
        {
            "magFilter" : 9729,
            "minFilter" : 9987,
            "wrapS" : 33071,
            "wrapT" : 33071
        },
        {
            "magFilter" : 9729,
            "minFilter" : 9987
        }
    ],
    "buffers" : [
        {
            "byteLength" : 18978208,
            "uri" : "room.bin"
        }
    ]
}
