{
    "asset" : {
        "generator" : "Khronos glTF Blender I/O v1.6.16",
        "version" : "2.0"
    },
    "scene" : 0,
    "scenes" : [
        {
            "name" : "Scene",
            "nodes" : [
                0
            ]
        }
    ],
    "nodes" : [
        {
            "mesh" : 0,
            "name" : "Curve.001",
            "rotation" : [
                0.7071068286895752,
                0,
                0,
                0.7071068286895752
            ],
            "scale" : [
                20.378559112548828,
                13.600149154663086,
                20.378559112548828
            ],
            "translation" : [
                -1.5559056997299194,
                -0.11220479011535645,
                -0.04906381666660309
            ]
        }
    ],
    "materials" : [
        {
            "doubleSided" : true,
            "emissiveFactor" : [
                5.960464477539063e-08,
                5.960464477539063e-08,
                5.960464477539063e-08
            ],
            "name" : "Chrome 2",
            "pbrMetallicRoughness" : {
                "baseColorFactor" : [
                    1,
                    0.9649544954299927,
                    0.7968505620956421,
                    1
                ],
                "roughnessFactor" : 0.07999999821186066
            }
        }
    ],
    "meshes" : [
        {
            "name" : "Curve.001",
            "primitives" : [
                {
                    "attributes" : {
                        "POSITION" : 0,
                        "NORMAL" : 1
                    },
                    "indices" : 2,
                    "material" : 0
                }
            ]
        }
    ],
    "accessors" : [
        {
            "bufferView" : 0,
            "componentType" : 5126,
            "count" : 806152,
            "max" : [
                0.03329289332032204,
                0.006889109965413809,
                -4.291972072678618e-05
            ],
            "min" : [
                0.00042562009184621274,
                7.322731221393042e-07,
                -0.02881845459342003
            ],
            "type" : "VEC3"
        },
        {
            "bufferView" : 1,
            "componentType" : 5126,
            "count" : 806152,
            "type" : "VEC3"
        },
        {
            "bufferView" : 2,
            "componentType" : 5125,
            "count" : 1211328,
            "type" : "SCALAR"
        }
    ],
    "bufferViews" : [
        {
            "buffer" : 0,
            "byteLength" : 9673824,
            "byteOffset" : 0
        },
        {
            "buffer" : 0,
            "byteLength" : 9673824,
            "byteOffset" : 9673824
        },
        {
            "buffer" : 0,
            "byteLength" : 4845312,
            "byteOffset" : 19347648
        }
    ],
    "buffers" : [
        {
            "byteLength" : 24192960,
            "uri" : "c.bin"
        }
    ]
}
