{
    "asset" : {
        "generator" : "Khronos glTF Blender I/O v1.7.33",
        "version" : "2.0"
    },
    "scene" : 0,
    "scenes" : [
        {
            "name" : "Scene",
            "nodes" : [
                0,
                1,
                2,
                3,
                4,
                5,
                6
            ]
        }
    ],
    "nodes" : [
        {
            "mesh" : 0,
            "name" : "Circle",
            "scale" : [
                22.534412384033203,
                19.09974479675293,
                22.534412384033203
            ],
            "translation" : [
                0.062273189425468445,
                -3.9282126426696777,
                1.523665189743042
            ]
        },
        {
            "mesh" : 1,
            "name" : "Cylinder.002",
            "rotation" : [
                0,
                0,
                -0.7071067690849304,
                0.7071068286895752
            ],
            "scale" : [
                2.3107450008392334,
                32.45943069458008,
                2.3107450008392334
            ],
            "translation" : [
                -0.6079239845275879,
                3.6519174575805664,
                -8.52029037475586
            ]
        },
        {
            "mesh" : 2,
            "name" : "Plane.001",
            "scale" : [
                1.3113908767700195,
                1.043532371520996,
                22.33497428894043
            ],
            "translation" : [
                -0.10585695505142212,
                1.1640784740447998,
                9.25439739227295
            ]
        },
        {
            "mesh" : 3,
            "name" : "Plane.002",
            "scale" : [
                22.221220016479492,
                40.95631790161133,
                29.916423797607422
            ],
            "translation" : [
                0.062273189425468445,
                -3.796970844268799,
                9.472737312316895
            ]
        },
        {
            "mesh" : 4,
            "name" : "Cube",
            "scale" : [
                1.5700931549072266,
                0.4412269592285156,
                26.800308227539062
            ],
            "translation" : [
                0,
                1.5030064582824707,
                12.911394119262695
            ]
        },
        {
            "mesh" : 5,
            "name" : "Circle.002",
            "scale" : [
                0.9468117356300354,
                0.9468117356300354,
                0.9468117356300354
            ],
            "translation" : [
                0,
                -4.960184574127197,
                5.565456390380859
            ]
        },
        {
            "mesh" : 6,
            "name" : "Circle.003",
            "scale" : [
                0.8375039100646973,
                0.8375039100646973,
                0.8375039100646973
            ],
            "translation" : [
                0,
                -4.583699703216553,
                5.565456390380859
            ]
        }
    ],
    "materials" : [
        {
            "doubleSided" : true,
            "name" : "Universe",
            "normalTexture" : {
                "index" : 0
            },
            "pbrMetallicRoughness" : {
                "baseColorTexture" : {
                    "index" : 1
                },
                "metallicFactor" : 0,
                "roughnessFactor" : 0.699999988079071
            }
        },
        {
            "doubleSided" : true,
            "name" : "Material.003",
            "pbrMetallicRoughness" : {
                "baseColorFactor" : [
                    0.8000000715255737,
                    0.4378596842288971,
                    0.05523133650422096,
                    1
                ],
                "roughnessFactor" : 0.5
            }
        },
        {
            "doubleSided" : true,
            "name" : "Universe Second",
            "normalTexture" : {
                "index" : 2
            },
            "pbrMetallicRoughness" : {
                "baseColorTexture" : {
                    "index" : 3
                },
                "metallicFactor" : 0,
                "roughnessFactor" : 0.699999988079071
            }
        },
        {
            "doubleSided" : true,
            "name" : "Material.002",
            "pbrMetallicRoughness" : {
                "baseColorFactor" : [
                    0.0735836997628212,
                    0.044684816151857376,
                    0.013208908028900623,
                    1
                ],
                "metallicFactor" : 0,
                "roughnessFactor" : 0.5
            }
        },
        {
            "doubleSided" : true,
            "name" : "Black tiles procedural",
            "normalTexture" : {
                "index" : 4
            },
            "pbrMetallicRoughness" : {
                "baseColorTexture" : {
                    "index" : 5
                },
                "metallicFactor" : 0,
                "roughnessFactor" : 0.1090908944606781
            }
        },
        {
            "doubleSided" : true,
            "name" : "Material.006",
            "pbrMetallicRoughness" : {
                "baseColorFactor" : [
                    0.15111547708511353,
                    0.778823733329773,
                    0.8000000715255737,
                    1
                ],
                "metallicFactor" : 0,
                "roughnessFactor" : 0.5
            }
        },
        {
            "doubleSided" : true,
            "name" : "Material.001",
            "pbrMetallicRoughness" : {
                "baseColorFactor" : [
                    0.8000000715255737,
                    0.6437513828277588,
                    0.42060112953186035,
                    1
                ],
                "metallicFactor" : 0,
                "roughnessFactor" : 0.5
            }
        }
    ],
    "meshes" : [
        {
            "name" : "Circle",
            "primitives" : [
                {
                    "attributes" : {
                        "POSITION" : 0,
                        "NORMAL" : 1,
                        "TEXCOORD_0" : 2
                    },
                    "indices" : 3,
                    "material" : 0
                }
            ]
        },
        {
            "name" : "Cylinder.002",
            "primitives" : [
                {
                    "attributes" : {
                        "POSITION" : 4,
                        "NORMAL" : 5,
                        "TEXCOORD_0" : 6
                    },
                    "indices" : 7,
                    "material" : 1
                }
            ]
        },
        {
            "name" : "Plane.001",
            "primitives" : [
                {
                    "attributes" : {
                        "POSITION" : 8,
                        "NORMAL" : 9,
                        "TEXCOORD_0" : 10
                    },
                    "indices" : 11,
                    "material" : 2
                }
            ]
        },
        {
            "name" : "Plane.002",
            "primitives" : [
                {
                    "attributes" : {
                        "POSITION" : 12,
                        "NORMAL" : 13,
                        "TEXCOORD_0" : 14,
                        "TEXCOORD_1" : 15,
                        "TEXCOORD_2" : 16
                    },
                    "indices" : 17,
                    "material" : 3
                }
            ]
        },
        {
            "name" : "Cube",
            "primitives" : [
                {
                    "attributes" : {
                        "POSITION" : 18,
                        "NORMAL" : 19,
                        "TEXCOORD_0" : 20
                    },
                    "indices" : 21,
                    "material" : 4
                }
            ]
        },
        {
            "name" : "Circle.003",
            "primitives" : [
                {
                    "attributes" : {
                        "POSITION" : 22,
                        "NORMAL" : 23,
                        "TEXCOORD_0" : 24
                    },
                    "indices" : 25,
                    "material" : 5
                }
            ]
        },
        {
            "name" : "Circle.005",
            "primitives" : [
                {
                    "attributes" : {
                        "POSITION" : 26,
                        "NORMAL" : 27,
                        "TEXCOORD_0" : 28
                    },
                    "indices" : 29,
                    "material" : 6
                }
            ]
        }
    ],
    "textures" : [
        {
            "sampler" : 0,
            "source" : 0
        },
        {
            "sampler" : 0,
            "source" : 1
        },
        {
            "sampler" : 0,
            "source" : 2
        },
        {
            "sampler" : 0,
            "source" : 3
        },
        {
            "sampler" : 0,
            "source" : 4
        },
        {
            "sampler" : 0,
            "source" : 5
        }
    ],
    "images" : [
        {
            "mimeType" : "image/png",
            "name" : "Uni Norm",
            "uri" : "textures/Uni%20Norm.png"
        },
        {
            "mimeType" : "image/png",
            "name" : "Universe",
            "uri" : "textures/Universe.png"
        },
        {
            "mimeType" : "image/png",
            "name" : "UniF Norm",
            "uri" : "textures/UniF%20Norm.png"
        },
        {
            "mimeType" : "image/png",
            "name" : "UniF",
            "uri" : "textures/UniF.png"
        },
        {
            "mimeType" : "image/png",
            "name" : "Floor Normal",
            "uri" : "textures/Floor%20Normal.png"
        },
        {
            "mimeType" : "image/png",
            "name" : "Floorish Diff",
            "uri" : "textures/Floorish%20Diff.png"
        }
    ],
    "accessors" : [
        {
            "bufferView" : 0,
            "componentType" : 5126,
            "count" : 75624,
            "max" : [
                1.4585009813308716,
                2.7930123805999756,
                1.9633513689041138
            ],
            "min" : [
                -1.4585011005401611,
                0.0028762808069586754,
                -0.7245314717292786
            ],
            "type" : "VEC3"
        },
        {
            "bufferView" : 1,
            "componentType" : 5126,
            "count" : 75624,
            "type" : "VEC3"
        },
        {
            "bufferView" : 2,
            "componentType" : 5126,
            "count" : 75624,
            "type" : "VEC2"
        },
        {
            "bufferView" : 3,
            "componentType" : 5125,
            "count" : 400011,
            "type" : "SCALAR"
        },
        {
            "bufferView" : 4,
            "componentType" : 5126,
            "count" : 11677,
            "max" : [
                0.9999473094940186,
                0.9999999403953552,
                1
            ],
            "min" : [
                -0.9999473094940186,
                -0.9999999403953552,
                -4.943154335021973
            ],
            "type" : "VEC3"
        },
        {
            "bufferView" : 5,
            "componentType" : 5126,
            "count" : 11677,
            "type" : "VEC3"
        },
        {
            "bufferView" : 6,
            "componentType" : 5126,
            "count" : 11677,
            "type" : "VEC2"
        },
        {
            "bufferView" : 7,
            "componentType" : 5123,
            "count" : 13002,
            "type" : "SCALAR"
        },
        {
            "bufferView" : 8,
            "componentType" : 5126,
            "count" : 574,
            "max" : [
                20.031143188476562,
                1.112562656402588,
                1.172637701034546
            ],
            "min" : [
                -19.774765014648438,
                -12.204109191894531,
                -1.0279550552368164
            ],
            "type" : "VEC3"
        },
        {
            "bufferView" : 9,
            "componentType" : 5126,
            "count" : 574,
            "type" : "VEC3"
        },
        {
            "bufferView" : 10,
            "componentType" : 5126,
            "count" : 574,
            "type" : "VEC2"
        },
        {
            "bufferView" : 11,
            "componentType" : 5123,
            "count" : 936,
            "type" : "SCALAR"
        },
        {
            "bufferView" : 12,
            "componentType" : 5126,
            "count" : 4,
            "max" : [
                1,
                0,
                1
            ],
            "min" : [
                -1,
                0,
                -1
            ],
            "type" : "VEC3"
        },
        {
            "bufferView" : 13,
            "componentType" : 5126,
            "count" : 4,
            "type" : "VEC3"
        },
        {
            "bufferView" : 14,
            "componentType" : 5126,
            "count" : 4,
            "type" : "VEC2"
        },
        {
            "bufferView" : 15,
            "componentType" : 5126,
            "count" : 4,
            "type" : "VEC2"
        },
        {
            "bufferView" : 16,
            "componentType" : 5126,
            "count" : 4,
            "type" : "VEC2"
        },
        {
            "bufferView" : 17,
            "componentType" : 5123,
            "count" : 6,
            "type" : "SCALAR"
        },
        {
            "bufferView" : 18,
            "componentType" : 5126,
            "count" : 28,
            "max" : [
                3.7454679012298584,
                1,
                1
            ],
            "min" : [
                -3.7454679012298584,
                -1,
                -1
            ],
            "type" : "VEC3"
        },
        {
            "bufferView" : 19,
            "componentType" : 5126,
            "count" : 28,
            "type" : "VEC3"
        },
        {
            "bufferView" : 20,
            "componentType" : 5126,
            "count" : 28,
            "type" : "VEC2"
        },
        {
            "bufferView" : 21,
            "componentType" : 5123,
            "count" : 36,
            "type" : "SCALAR"
        },
        {
            "bufferView" : 22,
            "componentType" : 5126,
            "count" : 192,
            "max" : [
                14.002960205078125,
                1.3777573108673096,
                10.805648803710938
            ],
            "min" : [
                -14.366291046142578,
                0,
                -10.805648803710938
            ],
            "type" : "VEC3"
        },
        {
            "bufferView" : 23,
            "componentType" : 5126,
            "count" : 192,
            "type" : "VEC3"
        },
        {
            "bufferView" : 24,
            "componentType" : 5126,
            "count" : 192,
            "type" : "VEC2"
        },
        {
            "bufferView" : 25,
            "componentType" : 5123,
            "count" : 372,
            "type" : "SCALAR"
        },
        {
            "bufferView" : 26,
            "componentType" : 5126,
            "count" : 512,
            "max" : [
                15.672959327697754,
                1.509416103363037,
                12.0870361328125
            ],
            "min" : [
                -16.06045913696289,
                -3.3927426557056606e-07,
                -12.0870361328125
            ],
            "type" : "VEC3"
        },
        {
            "bufferView" : 27,
            "componentType" : 5126,
            "count" : 512,
            "type" : "VEC3"
        },
        {
            "bufferView" : 28,
            "componentType" : 5126,
            "count" : 512,
            "type" : "VEC2"
        },
        {
            "bufferView" : 29,
            "componentType" : 5123,
            "count" : 768,
            "type" : "SCALAR"
        }
    ],
    "bufferViews" : [
        {
            "buffer" : 0,
            "byteLength" : 907488,
            "byteOffset" : 0
        },
        {
            "buffer" : 0,
            "byteLength" : 907488,
            "byteOffset" : 907488
        },
        {
            "buffer" : 0,
            "byteLength" : 604992,
            "byteOffset" : 1814976
        },
        {
            "buffer" : 0,
            "byteLength" : 1600044,
            "byteOffset" : 2419968
        },
        {
            "buffer" : 0,
            "byteLength" : 140124,
            "byteOffset" : 4020012
        },
        {
            "buffer" : 0,
            "byteLength" : 140124,
            "byteOffset" : 4160136
        },
        {
            "buffer" : 0,
            "byteLength" : 93416,
            "byteOffset" : 4300260
        },
        {
            "buffer" : 0,
            "byteLength" : 26004,
            "byteOffset" : 4393676
        },
        {
            "buffer" : 0,
            "byteLength" : 6888,
            "byteOffset" : 4419680
        },
        {
            "buffer" : 0,
            "byteLength" : 6888,
            "byteOffset" : 4426568
        },
        {
            "buffer" : 0,
            "byteLength" : 4592,
            "byteOffset" : 4433456
        },
        {
            "buffer" : 0,
            "byteLength" : 1872,
            "byteOffset" : 4438048
        },
        {
            "buffer" : 0,
            "byteLength" : 48,
            "byteOffset" : 4439920
        },
        {
            "buffer" : 0,
            "byteLength" : 48,
            "byteOffset" : 4439968
        },
        {
            "buffer" : 0,
            "byteLength" : 32,
            "byteOffset" : 4440016
        },
        {
            "buffer" : 0,
            "byteLength" : 32,
            "byteOffset" : 4440048
        },
        {
            "buffer" : 0,
            "byteLength" : 32,
            "byteOffset" : 4440080
        },
        {
            "buffer" : 0,
            "byteLength" : 12,
            "byteOffset" : 4440112
        },
        {
            "buffer" : 0,
            "byteLength" : 336,
            "byteOffset" : 4440124
        },
        {
            "buffer" : 0,
            "byteLength" : 336,
            "byteOffset" : 4440460
        },
        {
            "buffer" : 0,
            "byteLength" : 224,
            "byteOffset" : 4440796
        },
        {
            "buffer" : 0,
            "byteLength" : 72,
            "byteOffset" : 4441020
        },
        {
            "buffer" : 0,
            "byteLength" : 2304,
            "byteOffset" : 4441092
        },
        {
            "buffer" : 0,
            "byteLength" : 2304,
            "byteOffset" : 4443396
        },
        {
            "buffer" : 0,
            "byteLength" : 1536,
            "byteOffset" : 4445700
        },
        {
            "buffer" : 0,
            "byteLength" : 744,
            "byteOffset" : 4447236
        },
        {
            "buffer" : 0,
            "byteLength" : 6144,
            "byteOffset" : 4447980
        },
        {
            "buffer" : 0,
            "byteLength" : 6144,
            "byteOffset" : 4454124
        },
        {
            "buffer" : 0,
            "byteLength" : 4096,
            "byteOffset" : 4460268
        },
        {
            "buffer" : 0,
            "byteLength" : 1536,
            "byteOffset" : 4464364
        }
    ],
    "samplers" : [
        {
            "magFilter" : 9729,
            "minFilter" : 9987
        }
    ],
    "buffers" : [
        {
            "byteLength" : 4465900,
            "uri" : "Phase 1 - Beta File.bin"
        }
    ]
}
