{
  "accessors": [
    {
      "bufferView": 2,
      "componentType": 5126,
      "count": 1115,
      "max": [
        0.26747733354568481,
        0.35469579696655273,
        0.2674773633480072
      ],
      "min": [
        -0.2674773633480072,
        0.00024283351376652718,
        -0.2674773633480072
      ],
      "type": "VEC3"
    },
    {
      "bufferView": 2,
      "byteOffset": 13380,
      "componentType": 5126,
      "count": 1115,
      "max": [
        1,
        1,
        1
      ],
      "min": [
        -1,
        -1,
        -1
      ],
      "type": "VEC3"
    },
    {
      "bufferView": 1,
      "componentType": 5126,
      "count": 1115,
      "max": [
        1,
        0.71280276775360107
      ],
      "min": [
        0,
        -1
      ],
      "type": "VEC2"
    },
    {
      "bufferView": 0,
      "componentType": 5125,
      "count": 2772,
      "max": [
        1114
      ],
      "min": [
        0
      ],
      "type": "SCALAR"
    },
    {
      "bufferView": 2,
      "byteOffset": 26760,
      "componentType": 5126,
      "count": 405,
      "max": [
        0.23846086859703064,
        0.31897944211959839,
        0.23846086859703064
      ],
      "min": [
        -0.23846086859703064,
        0.31897938251495361,
        -0.23846086859703064
      ],
      "type": "VEC3"
    },
    {
      "bufferView": 2,
      "byteOffset": 31620,
      "componentType": 5126,
      "count": 405,
      "max": [
        1.0000043175750761e-06,
        1,
        1.0000040902014007e-06
      ],
      "min": [
        -1.0000040902014007e-06,
        1,
        -1.0000042038882384e-06
      ],
      "type": "VEC3"
    },
    {
      "bufferView": 1,
      "byteOffset": 8920,
      "componentType": 5126,
      "count": 405,
      "max": [
        1,
        0.56993740797042847
      ],
      "min": [
        0,
        0.56993728876113892
      ],
      "type": "VEC2"
    },
    {
      "bufferView": 0,
      "byteOffset": 11088,
      "componentType": 5125,
      "count": 588,
      "max": [
        404
      ],
      "min": [
        0
      ],
      "type": "SCALAR"
    },
    {
      "bufferView": 2,
      "byteOffset": 36480,
      "componentType": 5126,
      "count": 42770,
      "max": [
        0.21912451088428497,
        0.32786482572555542,
        0.27110019326210022
      ],
      "min": [
        -0.25093185901641846,
        0.012915749102830887,
        -0.27544906735420227
      ],
      "type": "VEC3"
    },
    {
      "bufferView": 2,
      "byteOffset": 549720,
      "componentType": 5126,
      "count": 42770,
      "max": [
        0.99999475479125977,
        0.99991798400878906,
        0.99996447563171387
      ],
      "min": [
        -0.99999618530273438,
        -0.99999392032623291,
        -0.99988818168640137
      ],
      "type": "VEC3"
    },
    {
      "bufferView": 1,
      "byteOffset": 12160,
      "componentType": 5126,
      "count": 42770,
      "max": [
        1,
        1
      ],
      "min": [
        0,
        0
      ],
      "type": "VEC2"
    },
    {
      "bufferView": 0,
      "byteOffset": 13440,
      "componentType": 5125,
      "count": 230472,
      "max": [
        42769
      ],
      "min": [
        0
      ],
      "type": "SCALAR"
    },
    {
      "bufferView": 2,
      "byteOffset": 1062960,
      "componentType": 5126,
      "count": 65532,
      "max": [
        0.21639885008335114,
        0.18663811683654785,
        0.16393056511878967
      ],
      "min": [
        -0.39960199594497681,
        -0.32426795363426208,
        -0.22023533284664154
      ],
      "type": "VEC3"
    },
    {
      "bufferView": 2,
      "byteOffset": 1849344,
      "componentType": 5126,
      "count": 65532,
      "max": [
        0.99995505809783936,
        0.99950796365737915,
        0.9999958872795105
      ],
      "min": [
        -0.99836891889572144,
        -0.99766242504119873,
        -0.44612035155296326
      ],
      "type": "VEC3"
    },
    {
      "bufferView": 1,
      "byteOffset": 354320,
      "componentType": 5126,
      "count": 65532,
      "max": [
        0.91242969036102295,
        0.98853659629821777
      ],
      "min": [
        0.074342161417007446,
        0.0021537244319915771
      ],
      "type": "VEC2"
    },
    {
      "bufferView": 0,
      "byteOffset": 935328,
      "componentType": 5125,
      "count": 83448,
      "max": [
        65531
      ],
      "min": [
        0
      ],
      "type": "SCALAR"
    },
    {
      "bufferView": 2,
      "byteOffset": 2635728,
      "componentType": 5126,
      "count": 3768,
      "max": [
        0.13662229478359222,
        0.18027961254119873,
        0.1587660014629364
      ],
      "min": [
        -0.37014132738113403,
        -0.2841973602771759,
        -0.1755814254283905
      ],
      "type": "VEC3"
    },
    {
      "bufferView": 2,
      "byteOffset": 2680944,
      "componentType": 5126,
      "count": 3768,
      "max": [
        0.99444621801376343,
        0.93301451206207275,
        0.99999403953552246
      ],
      "min": [
        -0.96976667642593384,
        -0.99905335903167725,
        -0.29123297333717346
      ],
      "type": "VEC3"
    },
    {
      "bufferView": 1,
      "byteOffset": 878576,
      "componentType": 5126,
      "count": 3768,
      "max": [
        0.91242969036102295,
        0.8503379225730896
      ],
      "min": [
        0.074342161417007446,
        0.32312661409378052
      ],
      "type": "VEC2"
    },
    {
      "bufferView": 0,
      "byteOffset": 1269120,
      "componentType": 5125,
      "count": 5652,
      "max": [
        3767
      ],
      "min": [
        0
      ],
      "type": "SCALAR"
    }
  ],
  "asset": {
    "extras": {
      "author": "anybody (https://sketchfab.com/anybody)",
      "license": "CC-BY-4.0 (http://creativecommons.org/licenses/by/4.0/)",
      "source": "https://sketchfab.com/3d-models/plant-pot-ivy-507dae90a1f541e0a3e2ccbee5abc333",
      "title": "Plant Pot Ivy"
    },
    "generator": "Sketchfab-9.28.2",
    "version": "2.0"
  },
  "bufferViews": [
    {
      "buffer": 0,
      "byteLength": 1291728,
      "byteOffset": 0,
      "name": "floatBufferViews",
      "target": 34963
    },
    {
      "buffer": 0,
      "byteLength": 908720,
      "byteOffset": 1291728,
      "byteStride": 8,
      "name": "floatBufferViews",
      "target": 34962
    },
    {
      "buffer": 0,
      "byteLength": 2726160,
      "byteOffset": 2200448,
      "byteStride": 12,
      "name": "floatBufferViews",
      "target": 34962
    }
  ],
  "buffers": [
    {
      "byteLength": 4926608,
      "uri": "scene.bin"
    }
  ],
  "images": [
    {
      "uri": "textures/Material.016_baseColor.png"
    }
  ],
  "materials": [
    {
      "doubleSided": false,
      "emissiveFactor": [
        0,
        0,
        0
      ],
      "name": "Material.019",
      "pbrMetallicRoughness": {
        "baseColorFactor": [
          0.43854399999999999,
          0.107491,
          0.030125900000000001,
          1
        ],
        "metallicFactor": 0,
        "roughnessFactor": 0.25
      }
    },
    {
      "doubleSided": true,
      "emissiveFactor": [
        0,
        0,
        0
      ],
      "name": "Material.018",
      "pbrMetallicRoughness": {
        "baseColorFactor": [
          0.011011230500289834,
          0.0042203664667877592,
          0.0042203664667877592,
          1
        ],
        "metallicFactor": 0,
        "roughnessFactor": 0.86363599999999996
      }
    },
    {
      "doubleSided": false,
      "emissiveFactor": [
        0,
        0,
        0
      ],
      "name": "Material.017",
      "pbrMetallicRoughness": {
        "baseColorFactor": [
          0.060283899999999987,
          0.024052999999999998,
          0.0011332699999999992,
          1
        ],
        "metallicFactor": 0,
        "roughnessFactor": 0.75
      }
    },
    {
      "alphaCutoff": 0.5,
      "alphaMode": "MASK",
      "doubleSided": true,
      "emissiveFactor": [
        0,
        0,
        0
      ],
      "name": "Material.016",
      "pbrMetallicRoughness": {
        "baseColorFactor": [
          1,
          1,
          1,
          1
        ],
        "baseColorTexture": {
          "index": 0,
          "texCoord": 0
        },
        "metallicFactor": 1,
        "roughnessFactor": 1
      }
    }
  ],
  "meshes": [
    {
      "primitives": [
        {
          "attributes": {
            "NORMAL": 1,
            "POSITION": 0,
            "TEXCOORD_0": 2
          },
          "indices": 3,
          "material": 0,
          "mode": 4
        }
      ]
    },
    {
      "primitives": [
        {
          "attributes": {
            "NORMAL": 5,
            "POSITION": 4,
            "TEXCOORD_0": 6
          },
          "indices": 7,
          "material": 1,
          "mode": 4
        }
      ]
    },
    {
      "primitives": [
        {
          "attributes": {
            "NORMAL": 9,
            "POSITION": 8,
            "TEXCOORD_0": 10
          },
          "indices": 11,
          "material": 2,
          "mode": 4
        }
      ]
    },
    {
      "primitives": [
        {
          "attributes": {
            "NORMAL": 13,
            "POSITION": 12,
            "TEXCOORD_0": 14
          },
          "indices": 15,
          "material": 3,
          "mode": 4
        }
      ]
    },
    {
      "primitives": [
        {
          "attributes": {
            "NORMAL": 17,
            "POSITION": 16,
            "TEXCOORD_0": 18
          },
          "indices": 19,
          "material": 3,
          "mode": 4
        }
      ]
    }
  ],
  "nodes": [
    {
      "children": [
        1
      ],
      "name": "RootNode (gltf orientation matrix)",
      "rotation": [
        -0.70710678118654746,
        -0,
        -0,
        0.70710678118654757
      ]
    },
    {
      "children": [
        2
      ],
      "matrix": [
        1.1074759960174561,
        0,
        0,
        0,
        0,
        1.1074759960174561,
        0,
        0,
        0,
        0,
        1.1074759960174561,
        0,
        0,
        0,
        0,
        1
      ],
      "name": "RootNode (model correction matrix)"
    },
    {
      "children": [
        3
      ],
      "name": "root"
    },
    {
      "children": [
        4
      ],
      "matrix": [
        1,
        0,
        0,
        0,
        0,
        2.2204460492503131e-16,
        1,
        0,
        0,
        -1,
        2.2204460492503131e-16,
        0,
        0,
        0,
        0,
        1
      ],
      "name": "GLTF_SceneRootNode"
    },
    {
      "children": [
        5,
        6,
        7,
        9
      ],
      "matrix": [
        -0.17888246499736893,
        0,
        0.38985943773981441,
        0,
        0,
        0.42893975973129272,
        0,
        0,
        -0.38985943773981441,
        0,
        -0.17888246499736893,
        0,
        3.4421682357788086e-05,
        -0.00014037708751857281,
        0.01201939582824707,
        1
      ],
      "name": "PlantPot_2"
    },
    {
      "mesh": 0,
      "name": ""
    },
    {
      "mesh": 1,
      "name": ""
    },
    {
      "children": [
        8
      ],
      "matrix": [
        -0.97224380793968246,
        0,
        -2.1189244251243728,
        0,
        0,
        2.3313298225402832,
        0,
        0,
        2.1189244251243728,
        0,
        -0.97224380793968246,
        0,
        -0.025434728711843491,
        0.00032726526842452586,
        0.01175872515887022,
        1
      ],
      "name": "Ivy_0"
    },
    {
      "mesh": 2,
      "name": ""
    },
    {
      "children": [
        10,
        11
      ],
      "matrix": [
        2.0923770220451985,
        -1.6521532900961384e-07,
        -1.0281323005422587,
        0,
        -1.0234164274386641,
        0.22304151082264359,
        -2.082779669967298,
        0,
        0.098362960091252602,
        2.3206357177724288,
        0.2001804767753553,
        0,
        0.092969842255115509,
        0.4540637731552124,
        -0.20488427579402924,
        1
      ],
      "name": "Leafe_1"
    },
    {
      "mesh": 3,
      "name": ""
    },
    {
      "mesh": 4,
      "name": ""
    }
  ],
  "samplers": [
    {
      "magFilter": 9729,
      "minFilter": 9987,
      "wrapS": 10497,
      "wrapT": 10497
    }
  ],
  "scene": 0,
  "scenes": [
    {
      "name": "OSG_Scene",
      "nodes": [
        0
      ]
    }
  ],
  "textures": [
    {
      "sampler": 0,
      "source": 0
    }
  ]
}

